<svg width="128" height="128" viewBox="0 0 128 128" fill="none" xmlns="http://www.w3.org/2000/svg">
<rect x="24.7649" y="1.40948" width="104.246" height="104.246" rx="9.5" transform="rotate(12.9466 24.7649 1.40948)" fill="white" stroke="#BAE1FE"/>
<path d="M98.9911 70.4216L96.4998 67.9657C96.5457 67.6808 96.5833 67.3946 96.6123 67.1075L99.6298 65.3536C99.7788 65.264 99.9028 65.1382 99.9904 64.988C100.078 64.8378 100.126 64.668 100.131 64.4942C100.136 64.3203 100.097 64.1481 100.018 63.9933C99.9386 63.8385 99.8217 63.7062 99.6779 63.6085L96.7639 61.6991C96.7512 61.4036 96.7319 61.1083 96.706 60.8137L99.3063 58.5127C99.4391 58.3986 99.5402 58.2522 99.5998 58.0875C99.6593 57.9228 99.6754 57.7456 99.6463 57.5729C99.6172 57.4003 99.5441 57.2381 99.4339 57.102C99.3237 56.966 99.1802 56.8607 99.0174 56.7965L95.7882 55.4858C95.7209 55.2065 95.6401 54.9264 95.5641 54.6451L97.6745 51.8746C97.7812 51.7367 97.8504 51.5735 97.8752 51.4009C97.9 51.2283 97.8795 51.0522 97.8158 50.8898C97.7524 50.7278 97.6492 50.5843 97.5159 50.4725C97.3825 50.3607 97.2232 50.2843 97.0525 50.2502L93.6137 49.5989C93.4934 49.3341 93.3653 49.0731 93.2296 48.8159L94.7677 45.6857C94.844 45.5284 94.879 45.3543 94.8693 45.1797C94.8597 45.0052 94.8058 44.836 94.7128 44.688C94.6197 44.5401 94.4905 44.4183 94.3373 44.3341C94.1841 44.25 94.0121 44.2062 93.8373 44.2069L90.3506 44.2402C90.1788 44.0056 89.9989 43.7771 89.8111 43.5551L90.7115 40.1719C90.7571 40.0036 90.7588 39.8264 90.7163 39.6572C90.6739 39.4881 90.5887 39.3327 90.469 39.2059C90.3492 39.0791 90.199 38.9852 90.0325 38.9332C89.8661 38.8812 89.6891 38.8728 89.5185 38.9089L86.1086 39.6139C85.8879 39.4236 85.6704 39.2296 85.4369 39.0456L85.6523 35.5663C85.6622 35.3924 85.6278 35.2189 85.5521 35.062C85.4764 34.9052 85.362 34.7702 85.2197 34.6699C85.0775 34.5695 84.912 34.5071 84.7389 34.4885C84.5657 34.4698 84.3907 34.4956 84.2303 34.5634L81.0317 35.9133C80.7793 35.7617 80.5222 35.6206 80.2695 35.4805L79.7951 32.0371C79.7722 31.8651 79.7059 31.7016 79.6025 31.5622C79.4991 31.4227 79.362 31.3118 79.2041 31.2399C79.0461 31.1679 78.8725 31.1373 78.6994 31.1508C78.5264 31.1643 78.3596 31.2216 78.2147 31.3173L75.3258 33.2931C75.0508 33.191 74.7731 33.0965 74.493 33.0096L73.3676 29.7143C73.3123 29.5487 73.2154 29.4002 73.0861 29.283C72.9567 29.1659 72.7994 29.084 72.6293 29.0453C72.4592 29.0066 72.2819 29.0124 72.1147 29.0621C71.9474 29.1118 71.7957 29.2038 71.6743 29.3291L69.2212 31.8105C68.9309 31.7651 68.6414 31.736 68.3607 31.7089L66.6107 28.6778C66.5214 28.5274 66.3953 28.4022 66.2443 28.3141C66.0933 28.2259 65.9223 28.1777 65.7474 28.174C65.5726 28.1703 65.3997 28.2112 65.245 28.2929C65.0904 28.3745 64.9591 28.4943 64.8635 28.6407L62.9573 31.5426C62.6579 31.5572 62.3757 31.5871 62.072 31.6007L59.772 29C59.6566 28.8695 59.51 28.7706 59.3459 28.7125C59.1817 28.6544 59.0055 28.6391 58.8338 28.6681C58.6621 28.697 58.5006 28.7692 58.3646 28.8779C58.2285 28.9866 58.1223 29.1281 58.0561 29.2892L56.7453 32.5193C56.4661 32.5867 56.1883 32.6681 55.9071 32.7441L53.1353 30.633C52.9971 30.5268 52.8339 30.4578 52.6614 30.4327C52.4888 30.4076 52.3127 30.4272 52.1499 30.4897C51.9871 30.5522 51.8431 30.6555 51.7317 30.7896C51.6202 30.9238 51.5451 31.0843 51.5134 31.2558L50.8509 34.6931C50.5957 34.8164 50.3368 34.9457 50.0812 35.0804L46.9433 33.5402C46.7863 33.4646 46.6127 33.4303 46.4388 33.4404C46.2649 33.4505 46.0964 33.5049 45.9493 33.5982C45.8022 33.6916 45.6813 33.8209 45.5981 33.974C45.5148 34.1271 45.4719 34.2988 45.4735 34.4731L45.4954 37.9582C45.263 38.1326 45.0463 38.3082 44.8104 38.4979L41.4413 37.6007C41.2731 37.5557 41.0961 37.5545 40.9273 37.5973C40.7585 37.64 40.6035 37.7252 40.4769 37.8449C40.3503 37.9645 40.2564 38.1145 40.2042 38.2807C40.1519 38.4468 40.1431 38.6236 40.1784 38.7941L40.8872 42.2058L40.3062 42.8634L36.83 42.6488C36.6564 42.6398 36.4834 42.6748 36.327 42.7507C36.1706 42.8266 36.036 42.9408 35.9357 43.0828C35.8353 43.2247 35.7726 43.3898 35.7532 43.5625C35.7338 43.7353 35.7585 43.9101 35.8249 44.0708L37.1894 47.2735C37.0369 47.5276 36.8904 47.7851 36.7498 48.0459L33.2966 48.5069C33.1239 48.5314 32.9603 48.5994 32.821 48.7045C32.6818 48.8097 32.5715 48.9485 32.5006 49.1079C32.4297 49.2673 32.4005 49.4422 32.4156 49.616C32.4308 49.7898 32.4899 49.957 32.5874 50.1017L34.5471 52.9876C34.4492 53.2591 34.3593 53.5334 34.2774 53.8101L30.9711 54.9473C30.8058 55.0011 30.6572 55.0969 30.54 55.2254C30.4228 55.3538 30.3409 55.5105 30.3023 55.6801C30.2637 55.8497 30.2698 56.0263 30.3199 56.1929C30.3701 56.3594 30.4625 56.51 30.5883 56.6301L33.0775 59.0855C33.0321 59.3759 32.9915 59.6651 32.9649 59.9437L29.9471 61.709C29.7961 61.7956 29.6699 61.9196 29.5806 62.0691C29.4913 62.2185 29.4419 62.3884 29.4371 62.5625C29.4323 62.7365 29.4723 62.9089 29.5532 63.063C29.6341 63.2172 29.7533 63.3479 29.8993 63.4427L32.8108 65.363C32.8278 65.6515 32.8443 65.9422 32.8756 66.2385L30.26 68.536C30.1293 68.6521 30.0304 68.7996 29.9727 68.9647C29.915 69.1298 29.9006 69.3068 29.9306 69.4791C29.9606 69.6513 30.0342 69.813 30.1444 69.9488C30.2545 70.0845 30.3975 70.1898 30.5598 70.2547L33.789 71.5654C33.8563 71.8447 33.9372 72.1248 34.0175 72.4071L31.9028 75.1766C31.7971 75.3151 31.7287 75.4782 31.7039 75.6506C31.6791 75.8231 31.6989 75.9989 31.7613 76.1615C31.8237 76.3241 31.9266 76.468 32.0603 76.5796C32.194 76.6911 32.3541 76.7666 32.5252 76.7988L35.9484 77.4581C36.0821 77.718 36.2009 77.9723 36.3486 78.2309L34.808 81.372C34.7323 81.5281 34.6977 81.7009 34.7073 81.8741C34.7169 82.0472 34.7705 82.2151 34.863 82.3618C34.9555 82.5085 35.0838 82.6292 35.2359 82.7125C35.388 82.7958 35.5588 82.839 35.7322 82.8379L39.2251 82.8175C39.3994 83.05 39.5794 83.2677 39.7646 83.5027L38.8672 86.8727C38.8202 87.0412 38.8176 87.2189 38.8596 87.3887C38.9015 87.5585 38.9867 87.7145 39.1067 87.8416C39.2268 87.9687 39.3777 88.0626 39.5447 88.1142C39.7118 88.1657 39.8894 88.1732 40.0602 88.1358L43.4723 87.4313C43.693 87.6215 43.9083 87.8151 44.1279 88.0097L43.9235 91.4915C43.9132 91.664 43.9471 91.8363 44.0218 91.9922C44.0965 92.148 44.2097 92.2823 44.3506 92.3823C44.4915 92.4823 44.6556 92.5448 44.8273 92.5639C44.9991 92.583 45.1728 92.558 45.3323 92.4914L48.5449 91.1309C48.7973 91.2824 49.0543 91.4235 49.307 91.5636L49.7784 95.0201C49.7992 95.1935 49.8646 95.3586 49.9681 95.4992C50.0717 95.6399 50.2098 95.7513 50.3692 95.8227C50.5286 95.8941 50.7037 95.923 50.8776 95.9066C51.0514 95.8902 51.2181 95.829 51.3613 95.7291L54.2473 93.7663C54.5208 93.8652 54.7878 93.9627 55.067 94.0469L56.2035 97.3539C56.2603 97.5182 56.358 97.6652 56.4874 97.7812C56.6168 97.8973 56.7737 97.9784 56.9431 98.0169C57.1126 98.0554 57.2891 98.0502 57.4559 98.0015C57.6228 97.9529 57.7745 97.8626 57.8968 97.739L60.3519 95.249C60.6422 95.2943 60.9229 95.3215 61.2123 95.3506L62.9653 98.3686C63.053 98.5185 63.1774 98.6437 63.3269 98.7321C63.4764 98.8205 63.6459 98.8693 63.8195 98.8739C63.9932 98.8784 64.1651 98.8386 64.319 98.7581C64.4729 98.6776 64.6038 98.5592 64.6991 98.414L66.6193 95.5015C66.9077 95.4845 67.1983 95.468 67.4936 95.441L69.7907 98.0548C69.9054 98.1864 70.0519 98.2864 70.2163 98.3452C70.3806 98.404 70.5573 98.4197 70.7295 98.3907C70.9016 98.3617 71.0635 98.289 71.1995 98.1795C71.3356 98.0701 71.4413 97.9275 71.5065 97.7656L72.8173 94.5354C73.1104 94.4575 73.3921 94.3792 73.6717 94.3005L76.4412 96.4111C76.5798 96.5161 76.7429 96.584 76.9151 96.6085C77.0872 96.6329 77.2628 96.613 77.4251 96.5506C77.5875 96.4883 77.7313 96.3856 77.8429 96.2522C77.9545 96.1188 78.0303 95.9592 78.0631 95.7883L78.7117 92.3617C78.9825 92.2304 79.2368 92.1115 79.4814 91.9743L82.624 93.5041C82.7804 93.5794 82.9532 93.6139 83.1264 93.6045C83.2997 93.5951 83.4677 93.542 83.615 93.4503C83.7623 93.3585 83.884 93.2309 83.9688 93.0795C84.0536 92.9281 84.0988 92.7577 84.1001 92.5842L84.0697 89.0857C84.3021 88.9113 84.5319 88.7386 84.7517 88.559L88.1364 89.4483C88.3047 89.494 88.4819 89.4956 88.651 89.4531C88.8201 89.4106 88.9755 89.3254 89.1022 89.2056C89.229 89.0858 89.3229 88.9355 89.3749 88.7691C89.4269 88.6026 89.4353 88.4256 89.3993 88.2549L88.6949 84.8442C88.8851 84.6234 89.0792 84.4059 89.2606 84.1832L92.739 84.3982C92.9128 84.4081 93.0863 84.3736 93.2431 84.2979C93.3999 84.2222 93.5349 84.1078 93.6352 83.9654C93.7356 83.8231 93.798 83.6576 93.8167 83.4844C93.8353 83.3112 93.8096 83.1362 93.7419 82.9758L92.3927 79.7765L92.8254 79.0141L96.268 78.5391C96.4409 78.5179 96.6056 78.4526 96.7461 78.3495C96.8866 78.2464 96.9984 78.109 97.0706 77.9503C97.1429 77.7917 97.1732 77.6172 97.1587 77.4435C97.1442 77.2698 97.0854 77.1027 96.9879 76.9583L95.0284 74.0609C95.114 73.7957 95.2139 73.5177 95.2981 73.2384L98.6066 72.1017C98.7715 72.0474 98.9196 71.9513 99.0364 71.8228C99.1532 71.6943 99.2349 71.5378 99.2734 71.3685C99.3119 71.1991 99.306 71.0227 99.2562 70.8563C99.2065 70.6899 99.1146 70.5393 98.9894 70.4189L98.9911 70.4216ZM74.1513 90.0228C71.6096 88.8478 73.3757 85.0279 75.9284 86.2054C76.4344 86.4411 76.8261 86.8682 77.0173 87.3928C77.2085 87.9173 77.1836 88.4964 76.9479 89.0026C76.7122 89.5088 76.2852 89.9007 75.7607 90.092C75.2363 90.2833 74.6573 90.2584 74.1513 90.0228ZM74.6865 83.1499C74.4581 83.0435 74.2108 82.9833 73.9591 82.973C73.7073 82.9626 73.4559 83.0022 73.2195 83.0895C72.9831 83.1768 72.7663 83.3101 72.5817 83.4816C72.397 83.6531 72.2481 83.8595 72.1435 84.0888L70.0188 88.6374C66.416 89.3813 62.6956 89.343 59.1091 88.5249C55.4422 87.6939 52.0016 86.0705 49.0284 83.7688L49.0827 78.7377C49.0877 78.4858 49.0426 78.2354 48.9499 78.0011C48.8572 77.7668 48.7188 77.5534 48.5428 77.3732C48.3667 77.1929 48.1566 77.0496 47.9246 76.9515C47.6926 76.8534 47.4433 76.8024 47.1914 76.8017L42.7608 76.7373C42.1524 75.7502 41.6158 74.7206 41.1551 73.6564L61.7601 78.3433C61.9892 78.3954 62.1537 78.3984 62.2034 78.1802L63.8601 70.8967C63.9098 70.6784 63.7601 70.6099 63.531 70.5578L57.4977 69.1855L58.5502 64.5583L65.0723 66.0418C65.6636 66.1763 68.2176 66.934 68.2811 70.4285C68.3125 71.5008 68.1299 74.9371 68.2732 76.083C68.3878 77.3648 69.4304 80.0857 71.1128 80.4684L81.377 82.8031C81.5021 82.8316 81.6295 82.8491 81.7576 82.8553C80.83 83.664 79.8435 84.4026 78.8063 85.0649L74.6865 83.1499ZM44.7016 83.2276C44.1437 83.2162 43.6128 82.9859 43.2232 82.5864C42.8336 82.1869 42.6168 81.6501 42.6194 81.092C42.6212 80.8151 42.6781 80.5413 42.7867 80.2866C42.8953 80.0318 43.0535 79.8012 43.252 79.6082C43.4505 79.4152 43.6854 79.2636 43.9431 79.1622C44.2007 79.0608 44.4759 79.0117 44.7527 79.0177C45.3108 79.0244 45.8434 79.2526 46.2333 79.6521C46.6232 80.0516 46.8384 80.5897 46.8316 81.148C46.8248 81.7062 46.5966 82.239 46.1972 82.629C45.7977 83.019 45.2597 83.2343 44.7016 83.2276ZM44.0973 49.7447C44.16 50.0199 44.1671 50.3048 44.118 50.5827C44.0689 50.8607 43.9647 51.126 43.8116 51.363C43.6584 51.6001 43.4594 51.8041 43.2262 51.9631C42.993 52.122 42.7304 52.2327 42.4538 52.2885C42.177 52.3413 41.8924 52.3384 41.6167 52.2799C41.341 52.2214 41.0797 52.1086 40.8481 51.948C40.6165 51.7874 40.4192 51.5822 40.2678 51.3445C40.1163 51.1068 40.0138 50.8412 39.9661 50.5634C39.5226 47.8823 43.49 47.0975 44.0968 49.7469L44.0973 49.7447ZM40.404 54.8937L45.2565 53.9407C46.2966 53.7365 46.9663 52.7296 46.7618 51.6914L46.3201 49.4262L49.9008 50.2407L46.2369 66.3486L39.0296 64.7092C38.8511 61.3794 39.317 58.0465 40.4018 54.8932L40.404 54.8937ZM60.1104 57.7395L61.1912 52.9879L69.6924 54.9216C70.1353 55.0223 72.6764 56.1398 72.2236 58.1304C71.8463 59.7892 69.6672 59.9156 67.9958 59.5354L60.1104 57.7395ZM90.0511 69.0446C89.9087 69.671 89.7432 70.2876 89.56 70.891L86.9678 70.3014C86.7059 70.2418 86.5641 70.3909 86.5046 70.6528L86.236 71.8337C85.6 74.6296 83.8941 74.8752 82.4696 74.721C81.1179 74.5697 79.8208 73.5423 79.8251 72.6962C80.0434 68.1548 78.9615 66.9284 77.2843 64.8482C80.185 63.8093 83.3586 62.0451 84.0824 58.8628C84.8634 55.4295 83.0005 52.7331 81.6413 51.3129C79.7286 49.31 77.3076 48.4517 76.6355 48.2988L49.8947 42.2163C54.5289 38.9212 60.1199 37.2463 65.8016 37.451L68.206 41.4895C68.3352 41.7049 68.5056 41.8926 68.7074 42.0421C68.9093 42.1915 69.1385 42.2997 69.3822 42.3604C69.6258 42.4212 69.879 42.4333 70.1274 42.3961C70.3757 42.3589 70.6143 42.2731 70.8295 42.1437L75.1215 39.5687C78.5654 41.0592 81.6433 43.2819 84.1415 46.0824C86.6397 48.8829 88.4983 52.194 89.588 55.7856L85.9269 60.6918C85.6261 61.1011 85.4986 61.6125 85.572 62.1151C85.6454 62.6177 85.9137 63.0712 86.3189 63.3773L90.4987 66.5019C90.3881 67.3514 90.2344 68.1887 90.0402 69.0421L90.0511 69.0446ZM69.6018 35.3633C72.0055 33.9267 74.1631 37.5372 71.7545 38.975C69.4008 40.2324 67.3853 36.8448 69.6018 35.3633ZM89.1814 60.1053C89.5132 59.6591 90.0084 59.3629 90.5583 59.2818C91.1082 59.2007 91.6678 59.3413 92.114 59.6727C93.6281 60.7953 93.0241 63.1785 91.1695 63.4522C89.3028 63.7185 88.0527 61.6069 89.1836 60.1058L89.1814 60.1053Z" fill="black"/>
</svg>
