<svg id="Layer_1" data-name="Layer 1" xmlns="http://www.w3.org/2000/svg" viewBox="0 0 891 162"><path d="M443.7,90.21H416.82l-7.2,17.68a.78.78,0,0,1-.71.47h-2.79a.76.76,0,0,1-.7-1l21.88-53a.77.77,0,0,1,.7-.47h4.52a.76.76,0,0,1,.7.47l21.89,53a.77.77,0,0,1-.71,1h-2.79a.75.75,0,0,1-.7-.47Zm-1.64-3.89L430.22,57.57,418.46,86.32Z"/><path d="M471.51,81.1c0-16.21,12-28.12,28-28.12A26.58,26.58,0,0,1,524.7,69.54a.76.76,0,0,1-.71,1h-2.85a.76.76,0,0,1-.68-.44A22.9,22.9,0,0,0,499.4,57C486,57,475.64,67.39,475.64,81.1S486,105.24,499.4,105.24a22.88,22.88,0,0,0,21.06-13.19.76.76,0,0,1,.68-.44H524a.77.77,0,0,1,.71,1,26.59,26.59,0,0,1-25.15,16.57C483.51,109.22,471.51,97.3,471.51,81.1Z"/><path d="M580.1,90.21H553.23L546,107.89a.76.76,0,0,1-.7.47h-2.8a.76.76,0,0,1-.7-1L563.9,53.83h5.53l22.08,53.48a.76.76,0,0,1-.7,1H588a.75.75,0,0,1-.7-.47Zm-1.63-3.89L566.63,57.57,554.86,86.32Z"/><path d="M659.4,81.1c0,16-12.23,27.26-28,27.26H614.36a.76.76,0,0,1-.76-.76v-53a.76.76,0,0,1,.76-.76h17.08C647.33,53.83,659.4,65.05,659.4,81.1Zm-4.13,0c0-13.63-10.36-23.29-23.68-23.29H617.73v46.58h13.86C644.91,104.39,655.2,94.81,655.27,81.1Z"/><path d="M687.29,57.81v20.4h27A.76.76,0,0,1,715,79v2.46a.76.76,0,0,1-.76.76h-27v22.2h28.76a.76.76,0,0,1,.76.76v2.45a.76.76,0,0,1-.76.76H683.16V53.83h32.89a.76.76,0,0,1,.76.76v2.46a.76.76,0,0,1-.76.76Z"/><path d="M787.86,54.59v53a.76.76,0,0,1-.76.76h-2.61a.76.76,0,0,1-.76-.76V58.66L763.55,89h-.46L743,58.66V107.6a.76.76,0,0,1-.76.76h-2.61a.76.76,0,0,1-.76-.76v-53a.76.76,0,0,1,.76-.76h4.29a.77.77,0,0,1,.63.34L763.4,82.34l18.7-28.17a.77.77,0,0,1,.64-.34h4.36A.76.76,0,0,1,787.86,54.59Z"/><path d="M834.29,88V107.6a.76.76,0,0,1-.76.76h-2.69a.76.76,0,0,1-.76-.76V88.11L810.21,55a.76.76,0,0,1,.65-1.15h3a.76.76,0,0,1,.65.37l17.7,29.23L849.88,54.2a.76.76,0,0,1,.65-.37h3a.77.77,0,0,1,.65,1.16Z"/><path d="M207.21,54.75v52.5a.76.76,0,0,1-.75.75H201a7.49,7.49,0,0,1-6.3-3.43l-24.78-38.3.85,19.13v21.85a.76.76,0,0,1-.75.75h-7.22a.76.76,0,0,1-.75-.75V54.75a.76.76,0,0,1,.75-.75h5.43a7.52,7.52,0,0,1,6.3,3.42l24.78,38.24-.77-19.06V54.75a.75.75,0,0,1,.75-.75h7.22A.76.76,0,0,1,207.21,54.75Z"/><path d="M281,108h-7.64a.75.75,0,0,1-.7-1L292.9,54.72A1.14,1.14,0,0,1,294,54h9.57a1.14,1.14,0,0,1,1.05.72L324.8,107a.75.75,0,0,1-.7,1h-7.64a.76.76,0,0,1-.71-.48l-16.31-43a.75.75,0,0,0-1.41,0l-16.31,43A.76.76,0,0,1,281,108Z"/><path d="M377.84,106.79,362.66,87.4c8.57-1.62,13.58-7.4,13.58-16.27,0-10.19-6.63-17.13-18.36-17.13H336.71a1.12,1.12,0,0,0-1.12,1.13h0a7.2,7.2,0,0,0,7.2,7.2H357c7.09,0,10.49,3.63,10.49,8.87s-3.32,9-10.49,9H336.71a1.13,1.13,0,0,0-1.12,1.13v26a.75.75,0,0,0,.75.75h7.22a.76.76,0,0,0,.75-.75V87.87h8.33l13.17,17.19a7.51,7.51,0,0,0,6,2.94h5.48A.75.75,0,0,0,377.84,106.79Z"/><path d="M258.17,54h-33.5a1,1,0,0,0-1,1h0A7.33,7.33,0,0,0,231,62.33h27.17a.74.74,0,0,0,.75-.75V54.75A.75.75,0,0,0,258.17,54Zm0,45.67h-25a.76.76,0,0,1-.75-.75V85.38a.75.75,0,0,1,.75-.75h23.11a.75.75,0,0,0,.75-.75V77a.75.75,0,0,0-.75-.75H224.79a1.13,1.13,0,0,0-1.12,1.13v29.46a1.12,1.12,0,0,0,1.12,1.12h33.38a.75.75,0,0,0,.75-.75v-6.83A.74.74,0,0,0,258.17,99.67Z"/><path d="M108.24,40.57,89.42,68.5a2,2,0,0,0,3,2.63l18.52-16a.74.74,0,0,1,1.24.56v50.29a.75.75,0,0,1-1.32.48l-56-67A9.59,9.59,0,0,0,47.54,36H45.59A9.59,9.59,0,0,0,36,45.59v70.82A9.59,9.59,0,0,0,45.59,126h0a9.59,9.59,0,0,0,8.17-4.57L72.58,93.5a2,2,0,0,0-3-2.63l-18.52,16a.74.74,0,0,1-1.24-.56V56.07a.75.75,0,0,1,1.32-.48l56,67a9.59,9.59,0,0,0,7.33,3.4h2a9.59,9.59,0,0,0,9.59-9.59V45.59A9.59,9.59,0,0,0,116.41,36h0A9.59,9.59,0,0,0,108.24,40.57Z"/></svg>