<svg width="270" height="30" viewBox="0 0 270 30" fill="none" xmlns="http://www.w3.org/2000/svg">
<g clip-path="url(#clip0)">
<path d="M29.0806 1.525L22.8083 10.8333C22.7195 10.9674 22.6822 11.129 22.7031 11.2884C22.7241 11.4478 22.8019 11.5943 22.9223 11.7008C23.0427 11.8074 23.1976 11.8668 23.3584 11.8682C23.5191 11.8696 23.675 11.8128 23.7972 11.7083L29.9722 6.35833C30.0085 6.32776 30.0527 6.30813 30.0997 6.30176C30.1467 6.29538 30.1946 6.30251 30.2377 6.32232C30.2808 6.34213 30.3174 6.37379 30.3432 6.41362C30.369 6.45344 30.3829 6.49978 30.3833 6.54722V23.3111C30.3829 23.3623 30.3668 23.412 30.3372 23.4537C30.3075 23.4954 30.2659 23.527 30.2177 23.5443C30.1696 23.5615 30.1173 23.5636 30.0679 23.5502C30.0186 23.5369 29.9745 23.5087 29.9417 23.4694L11.2889 1.13056C10.9883 0.776281 10.6142 0.491657 10.1925 0.296433C9.77091 0.101208 9.31185 5.77753e-05 8.84722 1.24646e-08H8.19722C7.34927 1.24646e-08 6.53604 0.336849 5.93644 0.936445C5.33685 1.53604 5 2.34927 5 3.19722V26.8083C5.00147 27.6553 5.33897 28.4671 5.93841 29.0655C6.53784 29.6639 7.35023 30 8.19722 30C8.74356 30 9.28076 29.8599 9.7574 29.5928C10.234 29.3258 10.6342 28.9409 10.9194 28.475L17.1917 19.1667C17.2805 19.0326 17.3178 18.871 17.2969 18.7116C17.2759 18.5522 17.1981 18.4057 17.0777 18.2992C16.9573 18.1926 16.8024 18.1332 16.6416 18.1318C16.4809 18.1304 16.325 18.1872 16.2028 18.2917L10.0278 23.6417C9.9915 23.6722 9.94727 23.6919 9.90026 23.6982C9.85325 23.7046 9.80539 23.6975 9.76228 23.6777C9.71917 23.6579 9.68259 23.6262 9.6568 23.5864C9.63102 23.5466 9.6171 23.5002 9.61667 23.4528V6.68889C9.61711 6.63775 9.63323 6.58798 9.66284 6.54628C9.69246 6.50459 9.73415 6.47298 9.78229 6.45572C9.83043 6.43846 9.88271 6.43638 9.93207 6.44977C9.98143 6.46315 10.0255 6.49134 10.0583 6.53055L28.7111 28.8694C29.0117 29.2237 29.3858 29.5083 29.8075 29.7036C30.2291 29.8988 30.6881 29.9999 31.1528 30H31.8028C32.6507 30 33.464 29.6632 34.0636 29.0636C34.6632 28.464 35 27.6507 35 26.8028V3.19167C34.9985 2.34467 34.661 1.53287 34.0616 0.93448C33.4622 0.336086 32.6498 -1.26621e-06 31.8028 1.24646e-08C31.2564 -4.82652e-05 30.7192 0.140146 30.2426 0.407161C29.766 0.674176 29.3658 1.05907 29.0806 1.525Z" fill="white"/>
<path d="M63.4784 20.7294L53.2791 11.2574V22H51V9.43234C51 8.47745 51.3836 8 52.1508 8H52.6698C52.8804 8.0308 53.0985 8.10781 53.3242 8.23102C53.5498 8.35424 53.8206 8.53905 54.1365 8.78548L64.6969 18.604V8H66.976V20.5908C66.976 21.5303 66.5999 22 65.8477 22H65.4641C65.2535 21.9538 64.9752 21.8306 64.6292 21.6304C64.2832 21.4301 63.8996 21.1298 63.4784 20.7294Z" fill="white"/>
<path d="M85.5078 16.1782H69.5544V13.8449H85.5078V16.1782ZM85.5078 10.3333H69.5544V8H85.5078V10.3333ZM85.5078 19.6667V22H69.5544V19.6667H85.5078Z" fill="white"/>
<path d="M104.243 22H101.558L95.8265 10.7954L90.0724 22H87.4323L93.3218 10.3564C93.7881 9.43234 94.2319 8.81628 94.6531 8.50825C95.0743 8.20022 95.4203 8.0462 95.6911 8.0462H96.0296C96.165 8.0462 96.3154 8.07701 96.4809 8.13861C96.6464 8.20022 96.8269 8.32343 97.0224 8.50825C97.218 8.67767 97.4286 8.91639 97.6543 9.22442C97.8799 9.51705 98.1131 9.89439 98.3538 10.3564L104.243 22Z" fill="white"/>
<path d="M118.251 10.3333H106.156V8H118.183C118.845 8 119.425 8.09241 119.921 8.27723C120.417 8.46205 120.824 8.71617 121.139 9.0396C121.47 9.34763 121.719 9.71727 121.884 10.1485C122.05 10.5798 122.132 11.0341 122.132 11.5116V12.6898C122.132 13.1364 122.05 13.5677 121.884 13.9835C121.719 14.3993 121.47 14.769 121.139 15.0924C120.824 15.4158 120.417 15.6777 119.921 15.8779C119.425 16.0781 118.845 16.1782 118.183 16.1782H110.985L122.132 22H117.303L106.156 16.2013V13.868H118.251C118.748 13.868 119.139 13.714 119.425 13.4059C119.71 13.0979 119.853 12.6513 119.853 12.066C119.853 11.4807 119.71 11.0495 119.425 10.7723C119.139 10.4796 118.748 10.3333 118.251 10.3333Z" fill="white"/>
<path d="M153.34 22H150.654L144.923 10.7954L139.169 22H136.529L142.418 10.3564C142.885 9.43234 143.328 8.81628 143.75 8.50825C144.171 8.20022 144.517 8.0462 144.788 8.0462H145.126C145.261 8.0462 145.412 8.07701 145.577 8.13861C145.743 8.20022 145.923 8.32343 146.119 8.50825C146.314 8.67767 146.525 8.91639 146.751 9.22442C146.976 9.51705 147.209 9.89439 147.45 10.3564L153.34 22Z" fill="white"/>
<path d="M168.927 11.5347V10.3333H163.038C161.127 10.3333 159.736 10.7338 158.863 11.5347C157.991 12.3201 157.554 13.4906 157.554 15.0462C157.554 16.6172 157.983 17.78 158.841 18.5347C159.713 19.2893 161.105 19.6667 163.015 19.6667H171.206V22H162.925C161.586 22 160.435 21.8768 159.472 21.6304C158.51 21.3685 157.712 20.9604 157.08 20.4059C156.464 19.8515 156.005 19.1353 155.704 18.2574C155.403 17.3795 155.253 16.3168 155.253 15.0693C155.253 12.6513 155.869 10.8724 157.103 9.73267C158.352 8.57756 160.3 8 162.947 8H171.206V11.5347H168.927Z" fill="white"/>
<path d="M189.942 22H187.256L181.525 10.7954L175.771 22H173.131L179.02 10.3564C179.486 9.43234 179.93 8.81628 180.351 8.50825C180.773 8.20022 181.119 8.0462 181.389 8.0462H181.728C181.863 8.0462 182.014 8.07701 182.179 8.13861C182.345 8.20022 182.525 8.32343 182.721 8.50825C182.916 8.67767 183.127 8.91639 183.353 9.22442C183.578 9.51705 183.811 9.89439 184.052 10.3564L189.942 22Z" fill="white"/>
<path d="M194.134 13.8449V19.6667H200.023C201.934 19.6667 203.325 19.2739 204.198 18.4884C205.07 17.6876 205.506 16.5094 205.506 14.9538C205.506 13.3828 205.07 12.22 204.198 11.4653C203.34 10.7107 201.956 10.3333 200.046 10.3333H191.855V8H200.136C201.46 8 202.603 8.13091 203.566 8.39274C204.544 8.63916 205.341 9.0396 205.958 9.59406C206.59 10.1485 207.056 10.8647 207.357 11.7426C207.658 12.6205 207.808 13.6832 207.808 14.9307C207.808 17.3487 207.184 19.1353 205.935 20.2904C204.687 21.4301 202.746 22 200.113 22H191.855V13.8449H194.134Z" fill="white"/>
<path d="M226.34 16.1782H210.387V13.8449H226.34V16.1782ZM226.34 10.3333H210.387V8H226.34V10.3333ZM226.34 19.6667V22H210.387V19.6667H226.34Z" fill="white"/>
<path d="M237.968 12.2508V22H240.247V12.2508H237.968ZM247.039 12.0429V22H249.295V11.5116C249.295 10.4334 248.912 9.57866 248.145 8.94719C247.393 8.31573 246.377 8 245.098 8H228.919V22H231.198V10.3333H245.279C245.745 10.3333 246.151 10.4873 246.497 10.7954C246.858 11.088 247.039 11.5038 247.039 12.0429Z" fill="white"/>
<path d="M257.951 22H260.23V15.5314L267 8H263.886L257.951 14.6073V22ZM251.205 8L256.71 14.0528L258.29 12.3663L254.318 8H251.205Z" fill="white"/>
</g>
<defs>
<clipPath id="clip0">
<rect width="270" height="30" fill="white"/>
</clipPath>
</defs>
</svg>
