<svg width="179" height="17" viewBox="0 0 179 17" fill="none" xmlns="http://www.w3.org/2000/svg">
<path d="M13.0734 1.18862V16.3066C13.0734 16.4218 12.987 16.537 12.8431 16.537H11.2593C10.5394 16.537 9.84828 16.1626 9.44513 15.5579L2.30369 4.52897L2.53406 10.029V16.3354C2.53406 16.4506 2.44767 16.5658 2.30369 16.5658H0.230368C0.115183 16.5658 0 16.4794 0 16.3354V1.18862C0 1.07344 0.0863871 0.958252 0.230368 0.958252H1.78536C2.50526 0.958252 3.19637 1.3326 3.59952 1.93732L10.741 12.9374L10.5106 7.43738V1.18862C10.5106 1.07344 10.597 0.958252 10.741 0.958252H12.8143C12.9871 0.958252 13.0734 1.04464 13.0734 1.18862Z" fill="#0A172F"/>
<path d="M31.547 16.5082H29.3585C29.2145 16.5082 29.0993 16.3642 29.1569 16.2202L34.9737 1.15983C35.0313 1.04464 35.1465 0.958252 35.2617 0.958252H38.0261C38.1701 0.958252 38.2853 1.04464 38.314 1.15983L44.1597 16.2202C44.2173 16.3642 44.1021 16.5082 43.9581 16.5082H41.7696C41.6832 16.5082 41.5968 16.4506 41.568 16.3642L36.8742 3.98185C36.8167 3.80907 36.5287 3.80907 36.4711 3.98185L31.7773 16.3642C31.7197 16.4506 31.6333 16.5082 31.547 16.5082Z" fill="#0A172F"/>
<path d="M58.6002 16.1626L54.2232 10.5762C56.6996 10.1154 58.1394 8.44525 58.1394 5.88239C58.1394 2.94518 56.2389 0.958252 52.8409 0.958252H46.7362C46.5634 0.958252 46.4194 1.10223 46.4194 1.27501C46.4194 2.42685 47.3409 3.34833 48.4927 3.34833H52.6106C54.6551 3.34833 55.6342 4.38499 55.6342 5.91119C55.6342 7.43738 54.6839 8.47404 52.6106 8.47404H46.7938C46.621 8.47404 46.477 8.61802 46.477 8.7908V16.2778C46.477 16.393 46.5634 16.5082 46.7074 16.5082H48.7807C48.8959 16.5082 49.0111 16.4218 49.0111 16.2778V10.7201H51.4011L55.2022 15.6731C55.6054 16.2202 56.2389 16.5082 56.93 16.5082H58.5138C58.629 16.5082 58.7154 16.3066 58.6002 16.1626Z" fill="#0A172F"/>
<path d="M26.7516 0.958252H17.1049C16.9321 0.958252 16.8169 1.07344 16.8169 1.24621C16.8169 2.39806 17.7672 3.34833 18.919 3.34833H26.7516C26.8668 3.34833 26.9819 3.26194 26.9819 3.11796V1.15983C26.9531 1.04464 26.8668 0.958252 26.7516 0.958252ZM26.7516 14.1181H19.5525C19.4374 14.1181 19.3222 14.0317 19.3222 13.8877V10.0002C19.3222 9.88505 19.4086 9.76987 19.5525 9.76987H26.2044C26.3196 9.76987 26.4348 9.68348 26.4348 9.5395V7.58136C26.4348 7.46618 26.3484 7.35099 26.2044 7.35099H17.1337C16.9609 7.35099 16.8169 7.49497 16.8169 7.66775V16.1626C16.8169 16.3354 16.9609 16.4794 17.1337 16.4794H26.7516C26.8668 16.4794 26.9819 16.393 26.9819 16.249V14.2909C26.9531 14.2045 26.8668 14.1181 26.7516 14.1181Z" fill="#0A172F"/>
<path d="M77.2951 13.758H71.4858L70.5545 16.5075H66.5856L72.2175 0.942033H76.6078L82.2397 16.5075H78.2264L77.2951 13.758ZM76.3195 10.8312L74.3905 5.13273L72.4836 10.8312H76.3195Z" fill="#0A172F"/>
<path d="M83.3108 8.70259C83.3108 7.16526 83.6434 5.79792 84.3086 4.60058C84.9738 3.38846 85.8976 2.4498 87.0802 1.78461C88.2775 1.10463 89.6301 0.764648 91.1379 0.764648C92.9856 0.764648 94.5673 1.25245 95.8829 2.22807C97.1985 3.20368 98.078 4.53406 98.5215 6.21921H94.3529C94.0425 5.5688 93.5991 5.07361 93.0226 4.73362C92.4608 4.39363 91.8178 4.22364 91.0935 4.22364C89.9257 4.22364 88.9797 4.63015 88.2554 5.44316C87.531 6.25617 87.1689 7.34264 87.1689 8.70259C87.1689 10.0625 87.531 11.149 88.2554 11.962C88.9797 12.775 89.9257 13.1815 91.0935 13.1815C91.8178 13.1815 92.4608 13.0115 93.0226 12.6716C93.5991 12.3316 94.0425 11.8364 94.3529 11.186H98.5215C98.078 12.8711 97.1985 14.2015 95.8829 15.1771C94.5673 16.1379 92.9856 16.6184 91.1379 16.6184C89.6301 16.6184 88.2775 16.2858 87.0802 15.6206C85.8976 14.9406 84.9738 14.0019 84.3086 12.8046C83.6434 11.6073 83.3108 10.2399 83.3108 8.70259Z" fill="#0A172F"/>
<path d="M110.533 13.758H104.724L103.792 16.5075H99.8234L105.455 0.942033H109.846L115.478 16.5075H111.464L110.533 13.758ZM109.557 10.8312L107.628 5.13273L105.721 10.8312H109.557Z" fill="#0A172F"/>
<path d="M123.023 0.942033C124.664 0.942033 126.098 1.26724 127.325 1.91764C128.552 2.56805 129.498 3.48454 130.163 4.6671C130.843 5.83488 131.183 7.18743 131.183 8.72476C131.183 10.2473 130.843 11.5999 130.163 12.7824C129.498 13.965 128.544 14.8815 127.303 15.5319C126.076 16.1823 124.649 16.5075 123.023 16.5075H117.192V0.942033H123.023ZM122.779 13.2259C124.213 13.2259 125.329 12.8342 126.127 12.0507C126.926 11.2673 127.325 10.1586 127.325 8.72476C127.325 7.29091 126.926 6.17486 126.127 5.37664C125.329 4.57841 124.213 4.17929 122.779 4.17929H120.983V13.2259H122.779Z" fill="#0A172F"/>
<path d="M137.093 3.97974V7.12831H142.171V10.0551H137.093V13.4698H142.836V16.5075H133.302V0.942033H142.836V3.97974H137.093Z" fill="#0A172F"/>
<path d="M162.925 0.942033V16.5075H159.134V7.17265L155.653 16.5075H152.593L149.089 7.15048V16.5075H145.298V0.942033H149.777L154.145 11.7181L158.468 0.942033H162.925Z" fill="#0A172F"/>
<path d="M179 0.942033L173.612 11.3634V16.5075H169.82V11.3634L164.432 0.942033H168.734L171.749 7.4609L174.743 0.942033H179Z" fill="#0A172F"/>
</svg>
