<?xml version="1.0" encoding="utf-8"?>
<!-- Generator: Adobe Illustrator 25.0.0, SVG Export Plug-In . SVG Version: 6.00 Build 0)  -->
<svg version="1.1" id="Layer_1" xmlns="http://www.w3.org/2000/svg" xmlns:xlink="http://www.w3.org/1999/xlink" x="0px" y="0px"
	 viewBox="0 0 340 856" style="enable-background:new 0 0 340 856;" xml:space="preserve">
<style type="text/css">
	.st0{fill:#1D1611;}
	.st1{fill:#5D5B59;}
	.st2{fill:#747474;}
	.st3{fill:#1D1D1B;}
	.st4{fill:#F7A379;}
	.st5{opacity:0.3;fill:#F7A379;enable-background:new    ;}
	.st6{opacity:0.2;fill:#F7A379;enable-background:new    ;}
	.st7{fill:#1EBF8C;}
	.st8{opacity:0.2;fill:#20541D;enable-background:new    ;}
	.st9{fill:#164514;}
	.st10{fill:#E6E7E8;}
	.st11{fill:#AAAAAA;}
	.st12{fill:#1D1D1B;stroke:#C3B398;stroke-width:0.8095;stroke-miterlimit:10;}
	.st13{fill:#2A2A2B;}
	.st14{fill:#F7F7F7;}
	.st15{fill:#F7AD8D;}
	.st16{fill:#946446;}
	.st17{opacity:0.4;fill:#E08C68;enable-background:new    ;}
	.st18{fill:#CE866F;}
	.st19{fill:#F0EEEE;}
	.st20{fill:#607138;}
	.st21{fill:#18100E;}
	.st22{fill:#EEEAEA;}
	.st23{fill:#E4806A;}
	.st24{fill:#402119;}
	.st25{fill:#422B20;}
	.st26{fill:#231F20;}
	.st27{fill:#58595B;}
	.st28{fill:none;stroke:#422B20;stroke-width:0.4652;stroke-linecap:round;stroke-miterlimit:10;}
</style>
<path id="XMLID_1605_" class="st0" d="M217.5,774.3c0,0-2.1,15.8-2.2,19.2c-0.1,3.4-1.9,11.4-1.9,11.4s-2.3,11.4-0.7,15.6
	c1.6,4.2,9.8,13.5,16.2,15.4s21.7,0.9,23.9-0.1c4.8-2.2,4.2-10.6,4.3-17.9c0-7.3-3.4-11.6-8.8-18.9c-5.4-7.3-7.3-24.5-7.3-24.5
	L217.5,774.3z"/>
<path id="XMLID_1604_" class="st1" d="M217.7,770.3c0,0-2.1,15.9-2.2,19.2c-0.1,3.4-1.9,11.4-1.9,11.4s-2.3,11.4-0.7,15.6
	c1.6,4.2,9.8,13.5,16.2,15.4s21.7,0.9,23.9-0.1c4.8-2.2,4.2-10.5,4.3-17.8c0-7.3-3.4-11.6-8.8-19c-5.4-7.3-7.3-24.5-7.3-24.5
	L217.7,770.3z"/>
<path id="XMLID_1603_" class="st2" d="M220.6,771.4c0,0-1.8,13.4-1.8,16.2s-1.6,9.6-1.6,9.6s-2,9.6-0.6,13.2
	c1.3,3.5,8.2,11.3,13.6,13c5.4,1.6,18.3,0.7,20.1-0.1c4.1-1.9,3.6-8.9,3.6-15c0.1-6.2-2.9-9.8-7.4-16c-4.5-6.1-6.1-20.6-6.1-20.6
	L220.6,771.4z"/>
<path id="XMLID_3_" class="st0" d="M142.3,774.3c0,0,2.1,15.8,2.2,19.2c0.1,3.4,1.9,11.4,1.9,11.4s2.3,11.4,0.7,15.6
	c-1.6,4.2-9.8,13.5-16.2,15.4c-6.4,1.9-21.7,0.9-23.9-0.1c-4.8-2.2-4.2-10.6-4.3-17.9c0-7.3,3.5-11.6,8.8-18.9
	c5.4-7.3,7.3-24.5,7.3-24.5L142.3,774.3z"/>
<path id="XMLID_2_" class="st1" d="M142.1,770.3c0,0,2.1,15.9,2.2,19.2c0.1,3.4,1.9,11.4,1.9,11.4s2.3,11.4,0.7,15.6
	c-1.6,4.2-9.8,13.5-16.2,15.4c-6.4,1.9-21.7,0.9-23.9-0.1c-4.8-2.2-4.2-10.5-4.3-17.8c0-7.3,3.4-11.6,8.8-19
	c5.4-7.3,7.3-24.5,7.3-24.5L142.1,770.3z"/>
<path id="XMLID_1_" class="st2" d="M139.2,771.4c0,0,1.8,13.4,1.8,16.2s1.6,9.6,1.6,9.6s2,9.6,0.6,13.2c-1.3,3.5-8.2,11.3-13.6,13
	c-5.4,1.6-18.3,0.7-20.1-0.1c-4.1-1.9-3.6-8.9-3.6-15c-0.1-6.2,2.9-9.8,7.4-16c4.5-6.1,6.1-20.6,6.1-20.6L139.2,771.4z"/>
<path class="st3" d="M81.6,602c67-5.5,147.1,0,163.7,3c16.6,3,16.1-75.5,11-111.5c-5.1-35.9-18.7-228.1-15-257.1
	c3.6-29-112.5-84.5-117.6-31.8s-30.8,189.3-36.9,241C80.6,497.2,81.6,602,81.6,602z"/>
<path class="st4" d="M167.4,108.5c1.3,12.4,2.5,47.9,0,55.3c-2.5,7.4-24.7,12.9-33.3,14.5c-7.2,1.3,15.8,53.3,38.9,56.1
	c72.2,8.6,59.1-50.8,58.3-59.8c0,0-8.3-1.6-23.4-8.8c-4.9-2.3-8.4-32.1-8.2-42.2C199.9,113.4,167.4,108.5,167.4,108.5z"/>
<path class="st5" d="M202.3,150.2c-1.7-9.6-2.8-21.2-2.7-26.7c0.2-10.1-32.3-15-32.3-15c1.3,12.4,2.5,47.9,0,55.3
	c0,0.1-0.1,0.2-0.2,0.3C184.8,163.7,195.7,158,202.3,150.2z"/>
<path class="st4" d="M271.3,501.3c2.8-2.7,4.5-4.3,5.5-9.1c1-4.8,0.4-15.1-1.3-16.1c-1.6-1-0.1,8.1-0.1,10.4
	c-0.1,2.2-1.7,8.8-3.9,9.7c-2.1,0.9-3.6-1.9-4.3-6.7c-0.7-4.8-1.3-8-1.4-12.6c-0.1-4.7-2.6-14.9-0.1-20.3c2.4-5.4,4.2-9.8,3.8-14.2
	c-0.5-4.4,18-3.5,18-3.5c1.1,4.6,5.8,29.1,6.6,32.2c0.8,3-1.7,21.3-6.7,25.1c-5,3.8-13.9,13.8-16.9,13
	C267.6,508.4,268.5,504,271.3,501.3z"/>
<path class="st6" d="M277.9,500.8c1.4-1.9,3.6-4.2,4.4-6.4c0.4-1.2,0.2-2.6,0.3-3.9c0.2-1.3,0.6-2.6,0.9-3.8
	c0.7-2.6,1.7-5.1,2.5-7.7c0.9-3.3-0.8-4.2-3-6.1c-2.5-2.3-2.7-4.6-3.6-7.8c-1.7-5.9-2.8-12.3-2.2-18.5c0.2-1.6,0.8-3,1.3-4.6
	c0.4-1.1,0.6-2.1,1-3.1c4.1-0.2,7.9,0,7.9,0c1.1,4.6,5.8,29.1,6.6,32.2c0.8,3-1.7,21.3-6.7,25.1c-3.7,2.8-9.4,8.9-13.4,11.6
	C274.5,505.2,276.5,502.7,277.9,500.8z"/>
<path class="st5" d="M275.9,476.7c-0.1-0.2-0.3-0.4-0.4-0.5c-1.6-1-0.1,8.1-0.1,10.4c-0.1,2.2-1.7,8.8-3.9,9.7
	c-0.1,0.1-0.2,0.1-0.4,0.1c0.6-1.3,0.9-2.5,1.1-4.2c0.2-2.2,0.6-4.7-0.8-6.7c-0.6-1-1.2-1.4-1.3-2.7c-0.2-1.3,0-2.4,0.4-3.6
	c0.7-2.1,1.2-4.1,1.6-6.2c0.3-1.6,0.9-5.8,2.7-5.6c1.3,2.1,1.2,4.8,1.1,7.2C275.9,475.3,275.9,476,275.9,476.7z"/>
<path class="st7" d="M118.5,387.9c-10.9,22.4-17.7,46.3-15.5,68.6c2.2,22.3,3.1,168.6,3.1,180s4.9,156,4.9,156s31.2,9.9,33.8,0
	c11.4-43.2,10.4-128.3,11.8-136.4c2.9-16.6,18.2-167.5,22.9-167.5s21.1,165.9,21.7,178.2c1,20.7,9.1,127.1,9.1,127.1
	s32.2-0.2,35.2-3.1c1.3-1.2-0.1-119.6,0.3-130.5c0.5-10.9,3.2-237.9,0.6-249c-10.4-44.8-70.3-34.9-70.3-34.9L118.5,387.9z"/>
<path class="st8" d="M179.5,488.7c0,0,21.1,165.9,21.7,178.2c1,20.7,9.1,127.1,9.1,127.1s32.2-0.2,35.2-3.1
	c1.3-1.2-0.1-119.6,0.3-130.5c0.5-10.9,3.2-237.9,0.6-249c-10.4-44.8-70.3-34.9-70.3-34.9L179.5,488.7z"/>
<g>
	<path class="st9" d="M103.8,448.2c-0.5,0-1.1-0.3-1.3-0.8c-0.3-0.7,0-1.6,0.7-1.9c8.4-3.8,20.6-10.1,28.8-21.8
		c0.5-0.6,1.3-0.8,2-0.3c0.6,0.5,0.8,1.3,0.3,2c-8.7,12.2-21.2,18.9-30,22.8C104.2,448.2,104,448.2,103.8,448.2z"/>
</g>
<path class="st10" d="M211,170.8c7.4,4.3,38.9,13.5,42.3,22s-5.5,87.4-8.2,94.9s-1,89.9-3.4,94.6c-2.4,4.6-98,16.3-119.8,8.6
	c-11-3.9-3.6-11.1-3.6-16c0-5-2.8-150.7-3.8-154.6c-0.9-3.9-12.7-22.3-8.4-26.2c4.4-3.9,55.1-19.8,55.1-19.8l23.7,47.9L211,170.8z"
	/>
<path class="st11" d="M187.9,226.6c0,1.3-0.9,2.4-2,2.4s-2-1.1-2-2.4c0-1.3,0.9-2.4,2-2.4C187,224.1,187.9,225.2,187.9,226.6z"/>
<path class="st11" d="M185.4,253.9c0,1.3-0.9,2.4-2,2.4s-2-1.1-2-2.4c0-1.3,0.9-2.4,2-2.4S185.4,252.6,185.4,253.9z"/>
<path class="st11" d="M184.2,281.9c0,1.3-1.1,2.4-2.4,2.4c-1.3,0-2.4-1.1-2.4-2.4s1.1-2.4,2.4-2.4
	C183.1,279.5,184.2,280.6,184.2,281.9z"/>
<path class="st11" d="M183.4,313.9c0,1.3-1.1,2.4-2.4,2.4c-1.3,0-2.4-1.1-2.4-2.4s1.1-2.4,2.4-2.4
	C182.4,311.4,183.4,312.5,183.4,313.9z"/>
<path class="st11" d="M182,349.2c0,1.3-1.1,2.4-2.4,2.4c-1.3,0-2.4-1.1-2.4-2.4s1.1-2.4,2.4-2.4C180.9,346.8,182,347.9,182,349.2z"
	/>
<path class="st11" d="M182,376.7c0,1.3-1.1,2.4-2.4,2.4c-1.3,0-2.4-1.1-2.4-2.4s1.1-2.4,2.4-2.4C180.9,374.2,182,375.3,182,376.7z"
	/>
<path class="st3" d="M114.3,383.5c20,2.9,70.7,3.3,89.3-0.1c18.7-3.4,31.1-3.7,31.1-3.7l3.1,13.4c0,0,0.8,3.7-36,5.9
	c-36.9,2.2-80.9,0.2-87.5-2.2C107.7,394.4,114.3,383.5,114.3,383.5z"/>
<path class="st12" d="M195.3,397.2c0,1.1-0.8,2-1.8,2l-20.9,0.6c-1,0-1.9-0.8-1.9-1.9l-0.4-11.5c0-1.1,0.8-2,1.8-2l20.9-0.6
	c1,0,1.9,0.8,1.9,1.9L195.3,397.2z"/>
<path class="st3" d="M268.3,192.3c8.9,0,22.8,11,23.7,54.8c0.8,43.9,7.5,156.4,3.6,162.7s2.6,49.5-1.1,50.8c-3.8,1.3-25.4,0-29.6,0
	s-4.3-45.3-5.5-50.8c-2.5-11.4-5.4-118.7-6.3-122.5C252.3,283.5,268.3,192.3,268.3,192.3z"/>
<path class="st13" d="M233.2,174.5c17.4,10,35.1,17.8,35.1,17.8c1.7,5-7.4,65.2-10.8,72.7c-3.3,7.5-7.7,83.9-6.9,95.2
	c1.7,22.5,20.2,231.6,19.7,236.6c-0.4,5,0,9.1-25.8,12.9c-8.1,1.2-43.6,2.4-43.6,2.4c-4.2,0-0.2-248,3.7-285.5
	c5.4-52.1,8.7-148,8.7-154.6C213.3,165.4,233.2,174.5,233.2,174.5z"/>
<path class="st3" d="M201.3,143.4c3.8,4.6,27.3,27.8,31.9,31.1c4.6,3.3,12.1,27.2,12.1,27.2l-29.3-7.6l26.9,30.1
	c0,0-38.1,132.9-41,142.5c0,0,8.6-169.2,9.7-180.5c1.2-12-9.2-16.6-9.2-16.6L201.3,143.4z"/>
<path class="st13" d="M135.1,174.5c-17.4,10-35.1,20.1-35.1,20.1c-1.7,5,3,68,6.4,75.5c3.3,7.5,4,37.9-2.5,53.5
	c-4.5,10.4-60.4,265.3-60,270.3s22.3,10.4,30.2,12.5s25.5,2.9,25.5,2.9c4.2,0,4.1-109.8,1.4-138.5c-5.4-58.7,14.1-78.8,17-110.6
	c6.4-69.8,29.9-181,34.9-191.9C155.7,162.2,135.1,174.5,135.1,174.5z"/>
<path class="st3" d="M170,147.1c-3.8,4.6-37.5,27.8-42.1,31.1s-13.5,25.6-13.5,25.6l27-2.6l-29.2,28.4c0,0,3.4,125,6.3,134.6
	c0,0,31.7-173.3,33.4-184.5c0.8-5,15.4-8.9,15.4-8.9L170,147.1z"/>
<path class="st13" d="M295.6,409.8c-1.9,1.2-34,3.3-37.8,0.5c-2.7-2,0.6,11.6,0.6,14.5s1.9,4.5,6.4,5.1c7.2,1,30.2,0.8,32.2-2.3
	C298.1,426.1,297.5,408.6,295.6,409.8z"/>
<path class="st4" d="M75.5,354.9c6,18.1,18.1,49.4,20.6,55.8s6.4,12.4,7.1,18.1s2.5,17.1,2.5,17.1s23.5-13.6,24.2-18.6
	c0,0-0.9-8.2-5.7-9.2c-5.7-1.2-4.6-9-5.7-12.5c-0.3-0.9-13.6-44.5-14.9-50.7c-1.8-8.2-9.6-32.7-20.6-22.7
	C69.5,344.3,75.5,354.9,75.5,354.9z"/>
<path class="st3" d="M99.9,194.6c-6.5-3.1-16.7,3.8-21.6,22.4c-4.9,18.6-23.5,126.2-17.7,133.6c5.7,7.4,30.1,62.5,31.3,67.8
	c1.1,5.3,2.7,6.2,11.9,0s18.4-10.5,21.1-12.9c2.3-2.1-5.4-11.7-6.4-17.6s-14.8-50.8-17.5-53.4c-2.7-2.7,10.3-58.6,10.3-66.4
	C111.4,222.6,99.9,194.6,99.9,194.6z"/>
<path class="st13" d="M82.1,399.6c1.6-1.9,31.4-15.3,36.3-14.3c3.6,0.7-1.7-12.1-2.8-14.8c-1.1-2.7-3.6-3.4-8.5-2.2
	c-7.9,2-31.9,11.4-33,15.2C73.7,385.4,80.6,401.5,82.1,399.6z"/>
<path class="st3" d="M218.5,327.9c0,3.4-2.1,6.1-4.7,6.1c-2.6,0-4.7-2.7-4.7-6.1s2.1-6.1,4.7-6.1S218.5,324.6,218.5,327.9z"/>
<path class="st3" d="M218.5,374.2c0,3.4-2.1,6.1-4.7,6.1c-2.6,0-4.7-2.7-4.7-6.1s2.1-6.1,4.7-6.1S218.5,370.8,218.5,374.2z"/>
<path class="st3" d="M218.5,416.7c0,3.4-2.1,6.1-4.7,6.1c-2.6,0-4.7-2.7-4.7-6.1s2.1-6.1,4.7-6.1S218.5,413.3,218.5,416.7z"/>
<path class="st3" d="M218.5,459.6c0,3.4-2.1,6.1-4.7,6.1c-2.6,0-4.7-2.7-4.7-6.1s2.1-6.1,4.7-6.1S218.5,456.2,218.5,459.6z"/>
<polygon class="st10" points="169.3,153.9 157,164.1 156.5,175 167.3,170.8 "/>
<polygon class="st14" points="157,164.1 165.9,172.7 184.9,222.1 162.9,179 153.2,192.3 148.8,176.6 "/>
<polygon class="st10" points="201.7,153.1 212.9,164.1 212.4,176.6 202.3,169.6 "/>
<polygon class="st14" points="212.9,164.1 204.1,172.7 185.1,222.1 207.1,179 211.2,190.9 217,175 "/>
<g>
	<g id="ears_20_">
		<path id="XMLID_1593_" class="st15" d="M152.1,91.9l2.2,18.1c0,0-0.9,1.7-3.6,1.8c-2.7,0.1-7.6-9-7.6-9s-4.2-10-0.2-13
			C147.2,86.6,152.1,91.9,152.1,91.9z"/>
		<path id="XMLID_1592_" class="st15" d="M216.1,92.2l-1,18.2c0,0,1,1.7,3.7,1.6s7-9.6,7-9.6s3.6-10.3-0.6-13
			C220.7,86.6,216.1,92.2,216.1,92.2z"/>
	</g>
	<path id="head_30_" class="st15" d="M146.1,65.9c0,0,5,52.5,9.6,58.7c4.6,6.2,14.7,20.9,20.3,23.4c5.5,2.5,11.7,2.8,17.8,0.3
		c6.2-2.5,17.1-16.4,21.4-22.1c5.3-6.9,6.8-66.9,6.8-62.3c0,0-4.2-29.1-39-28C152.5,36.9,146.1,65.9,146.1,65.9z"/>
	<path id="beard" class="st16" d="M209.4,117.9c-4.7,1.2-1.4-8-24.6-7.2c-23.2,0.9-19.2,10.4-26.4,8.2c-5.6-1.7-11.5-31.9-11.5-31.9
		s3.7,31.7,7.3,41.6c4.1,11.5,19.1,29.2,31.3,28.8s28.5-18,31.9-29.7c2.5-8.6,2.9-35.7,2.9-35.7S214,116.7,209.4,117.9z
		 M185.1,133.1c-10.7,0.7-13.8-10.5-13.8-10.5s2.7-5.9,12.7-5.9c12.6-1.2,14.8,5.9,14.8,5.9S195.9,132.5,185.1,133.1z"/>
	<g id="hair_51_">
		<path id="XMLID_1572_" class="st16" d="M225,57.6c-2.6-15.3-19.2-33.2-50.2-28.3c-13.5,2.1-11.2,10.2-15.5,11.5
			c-3.3,1-4.9-1.4-8.6,1.1c-6.7,4.7-8.3,14-8.6,16.7c-1.3,13.2,5.5,37.9,6.1,40.4c0.2,0.7,1.1,0.2,1.1,0.2c-2-14-1-32.5,8.1-41.4
			c13.3-16.4,44.9-13.6,55.4-0.3c7.9,7.2,8.1,30.2,6,40.4c0,0,1.2,0.2,1.3-0.6C220.8,90.2,227.2,70.8,225,57.6z"/>
	</g>
	<g id="face_19_">
		<path id="nose_30_" class="st17" d="M179.3,100.2c0,0-1.5,6.1-0.6,8.4s12.2,1.4,13.4,0c1.1-1.3-0.7-8.4-0.7-8.4s0.7,5.2-0.9,6.7
			c-1.6,1.4-9.1,1-10-0.2C179.5,105.4,179.3,100.2,179.3,100.2z"/>
		<g id="lips_31_">
			<path id="XMLID_1571_" class="st18" d="M174.9,120.7c5,4.4,14.2,4.8,20.8-0.1c0,0-5.2,0.8-10.6,0.9
				C178.7,121.5,174.9,120.7,174.9,120.7z"/>
			<path id="XMLID_1570_" class="st18" d="M181.3,127.3c2.5,0.7,4.8,0.7,7.7,0c0,0-1.2,2-3.9,2C182.4,129.3,181.3,127.3,181.3,127.3
				z"/>
		</g>
		<g id="left_49_">
			<path id="XMLID_1569_" class="st19" d="M205.3,87.7c5.3,0.7,8,4.2,8,4.2s0.4,0.7-9.1,1.7c-7.8,0-9.9-0.5-9.9-1.1
				C194.3,91,198.7,86.8,205.3,87.7z"/>
			<path id="XMLID_1568_" class="st20" d="M200,89.7c0.2-2,1.9-3.6,4-3.5s3.8,1.9,3.6,3.9c-0.1,2.1-1.9,3.6-4,3.5
				S199.9,91.7,200,89.7z"/>
			<path id="XMLID_1567_" class="st21" d="M201.1,89.8c0.1-1.5,1.4-2.6,2.8-2.5c1.6,0.1,2.6,1.3,2.5,2.8s-1.4,2.6-2.8,2.5
				C202.1,92.4,201,91.2,201.1,89.8z"/>
			<path id="XMLID_1566_" class="st22" d="M200,88.6c0.1-0.6,0.6-1.1,1.2-1c0.6,0,1.1,0.5,1,1.1c0,0.6-0.5,1-1.2,1
				C200.4,89.7,199.9,89.2,200,88.6z"/>
			<path id="XMLID_1565_" class="st23" d="M204.6,85.1c-11.1-0.1-10.3,7.4-10.3,7.4s3-5.4,10.8-5.2c4.7,0.2,8.3,4.5,8.3,4.5
				S212.9,85.1,204.6,85.1z"/>
			<path id="XMLID_1564_" class="st24" d="M204.6,86.7c-9.6-0.5-10.3,5.8-10.3,5.8s3.7-5.5,10.4-4.6c6.2,0.8,8.6,4,8.6,4
				S212.8,87.1,204.6,86.7z"/>
		</g>
		<g id="right_67_">
			<path id="XMLID_1563_" class="st19" d="M164.1,88.1c-5.3,0.5-8,4.2-8,4.2s0.2,1.2,9,1.9c8.5,0.2,10-0.7,10-1.3
				C175.1,90.8,169.4,87.6,164.1,88.1z"/>
			<path id="XMLID_1562_" class="st20" d="M169.5,90.1c-0.1-2-1.9-3.6-4-3.5s-3.7,1.9-3.6,3.9c0.1,2,1.9,3.6,4.1,3.5
				C168,93.9,169.6,92.2,169.5,90.1z"/>
			<path id="XMLID_1561_" class="st21" d="M168.4,90.2c-0.1-1.4-1.4-2.6-2.9-2.5s-2.6,1.3-2.5,2.8s1.3,2.6,2.8,2.5
				S168.4,91.6,168.4,90.2z"/>
			<path id="XMLID_1560_" class="st22" d="M163.8,89.2c0-0.6-0.6-1.1-1.2-1c-0.6,0-1.1,0.5-1.1,1.1s0.6,1.1,1.2,1
				C163.4,90.3,163.9,89.8,163.8,89.2z"/>
			<path id="XMLID_1559_" class="st23" d="M165.2,85.7c10.5-0.4,10,7.3,10,7.3s-3-5.4-10.8-5.1c-4.7,0.2-8.3,4.5-8.3,4.5
				S156.1,86.1,165.2,85.7z"/>
			<path id="XMLID_1558_" class="st24" d="M165.2,87.3c9.6,0,10,5.7,10,5.7s-3.5-5.1-10.4-4.7c-6.2,0.4-8.6,4-8.6,4
				S156.8,87.3,165.2,87.3z"/>
		</g>
		<g id="eyebrows_30_">
			<path id="XMLID_1557_" class="st16" d="M193.7,83.4c8.6-0.4,24.5-0.7,24.5-0.7s-0.8-6.3-4.6-7s-21.1-0.7-22,0.5
				C191,77.3,192.1,83.5,193.7,83.4z"/>
			<path id="XMLID_1556_" class="st16" d="M176.7,83.5c-9.9-0.5-25.7-0.7-25.7-0.7s0.9-6.3,4.6-7c3.8-0.7,20.9-1,21.7,0.2
				C178.2,77.2,178.3,83.6,176.7,83.5z"/>
		</g>
	</g>
	<g>
		<path class="st25" d="M216.1,94.9c-0.3,0-0.6-0.2-0.8-0.5c-0.3-0.5-0.2-1.1,0.3-1.4l5.3-3.4c0.5-0.3,1.1-0.2,1.4,0.3
			c0.3,0.5,0.2,1.1-0.3,1.4l-5.3,3.4C216.5,94.8,216.3,94.9,216.1,94.9z"/>
	</g>
	<g>
		<path class="st25" d="M154.2,94.6c-0.1,0-0.3,0-0.4-0.1l-8.3-4c-0.5-0.2-0.7-0.8-0.5-1.3s0.8-0.7,1.3-0.5l8.3,4
			c0.5,0.2,0.7,0.8,0.5,1.3C154.9,94.4,154.5,94.6,154.2,94.6z"/>
	</g>
	<g>
		<path class="st26" d="M179.5,95.2c0,7.2-5.9,13.1-13.1,13.1c-7.2,0-13.1-5.8-13.1-13.1c0-7.2,5.9-13.1,13.1-13.1
			C173.6,82.2,179.5,88,179.5,95.2z"/>
		<path class="st26" d="M217,95.2c0,7.2-5.8,13.1-13.1,13.1c-7.2,0-13-5.8-13-13.1c0-7.2,5.8-13.1,13-13.1
			C211.2,82.2,217,88,217,95.2z"/>
		<g>
			<path class="st27" d="M166.4,82.2c-1.1,0-2.2,0.2-3.3,0.5l-7.8,19.5c1,1.6,2.2,2.9,3.7,3.9l9.5-23.7
				C167.8,82.3,167.1,82.2,166.4,82.2z"/>
			<path class="st27" d="M171,83l-9.7,24.2c1.6,0.7,3.3,1,5.1,1c0.9,0,1.8-0.1,2.7-0.3l8.1-20.1C175.7,85.7,173.5,84,171,83z"/>
		</g>
		<g>
			<path class="st27" d="M208.6,83.1l-9.7,24.2c1.6,0.7,3.3,1,5.1,1c0.9,0,1.8-0.1,2.7-0.3l8.1-20.1C213.3,85.7,211.1,84,208.6,83.1
				z"/>
			<path class="st27" d="M204,82.2c-1.1,0-2.2,0.2-3.3,0.5l-7.8,19.4c1,1.6,2.2,2.9,3.7,4l9.5-23.7C205.4,82.3,204.7,82.2,204,82.2z
				"/>
		</g>
		<path class="st28" d="M179.5,95.2c0,7.2-5.9,13.1-13.1,13.1c-7.2,0-13.1-5.8-13.1-13.1c0-7.2,5.9-13.1,13.1-13.1
			C173.6,82.2,179.5,88,179.5,95.2z"/>
		<path class="st28" d="M217,95.2c0,7.2-5.8,13.1-13.1,13.1c-7.2,0-13-5.8-13-13.1c0-7.2,5.8-13.1,13-13.1
			C211.2,82.2,217,88,217,95.2z"/>
		<g>
			<path class="st25" d="M190.6,98.8c-0.3,0-0.6-0.3-0.6-0.6c0-3.1-2.2-5.7-4.8-5.7c-2.7,0-4.8,2.6-4.8,5.7c0,0.3-0.3,0.6-0.6,0.6
				s-0.6-0.3-0.6-0.6c0-3.8,2.7-6.8,6-6.8s6,3.1,6,6.8C191.1,98.6,190.9,98.8,190.6,98.8z"/>
		</g>
		<g>
			<path class="st25" d="M152.5,98c-0.4,0-0.6-0.3-0.6-0.6v-4.6c0-0.4,0.3-0.6,0.6-0.6s0.6,0.3,0.6,0.6v4.6
				C153.2,97.7,152.9,98,152.5,98z"/>
		</g>
		<g>
			<path class="st25" d="M217.8,98c-0.4,0-0.6-0.3-0.6-0.6v-4.6c0-0.4,0.3-0.6,0.6-0.6c0.4,0,0.6,0.3,0.6,0.6v4.6
				C218.4,97.7,218.1,98,217.8,98z"/>
		</g>
	</g>
</g>
<path class="st16" d="M221,61.4c-1.3-11.2-8.4-21.2-20-23.3c-5.9-1-12.2-0.9-18,0.1c-3.3,0.6-7.2,1.3-10,3.3
	c-1.6,1.2-2.9,2.7-1.4,5.9c1.8,2.6,7.2,4.7,10.1,5.6c4,1.2,8.4,0.8,12.5,1.8c2.3,0.6,4.6,1.8,6.8,2.4c-0.1-1.5-1.6-3.1-2.1-4.7
	c1.3,0,2.2,1.1,3.2,1.9c1.9,1.5,4.3,2.4,6.1,4.1c2.8,2.6,5.5,6.5,6.6,10.2c0.5-0.7,0.7-1.8,1.2-2.6c1,3.3,1.8,6.9,2.7,10.3
	c0.7,3,0.6,6.5,1.6,9.3c0-1.2,0.6-2.3,0.8-3.4c0.4-2,0.3-4.2,0.4-6.2C221.7,71,221.5,66.4,221,61.4z"/>
<path class="st16" d="M166.6,43.7c-4,2.3-7.1,6.1-10.3,9.3c-2.2,2.3-5.1,4.6-6.7,7.4c-1.3,2.3-2.5,5.3-3.4,7.8
	c-1.4,4.1-1.2,9.1-0.4,13.3c0.8,4.1,1.1,8.3,1.9,12.4c0.4,2.3,0.8,4.5,1.2,6.8c0.5,2.4,0.6,5.3,2.6,7.1c-2.8-28.3-1.8-34.7-0.1-37.8
	c0,0.8,0.3,1.6,0.7,2.2c1.9-6.7,7.3-8.2,11.5-16.3c-0.6,2.5-0.5,6.2,0.1,8.6c0.8-4.6,4.2-7,7.1-10.4c1.7-2.1,5.4-9.5,6.2-10.4
	C176.1,40,168.2,42.7,166.6,43.7z"/>
</svg>
