<svg width="39" height="36" viewBox="0 0 39 36" fill="none" xmlns="http://www.w3.org/2000/svg">
<path d="M29.4656 21.7661L22.9687 18.7675V16.0603C22.273 15.705 21.6397 15.2383 21.0937 14.6785V18.7581L15.0656 21.5781V14.3495C15.1785 14.3435 15.2895 14.3181 15.3937 14.2743L19.5937 12.3379C19.36 11.7344 19.2087 11.102 19.1437 10.4579L15 12.3379L10.2187 10.1759L15 7.96692L19.1062 9.84692V9.77172C19.1063 9.13652 19.1915 8.50421 19.3594 7.89172L15.375 6.08693C15.2516 6.02966 15.1172 6 14.9812 6C14.8453 6 14.7109 6.02966 14.5875 6.08693L7.55625 9.32992C7.39352 9.40543 7.2558 9.52615 7.15942 9.67777C7.06304 9.82938 7.01205 10.0055 7.0125 10.1853V18.7769L0.543753 21.7661C0.381021 21.8416 0.243302 21.9623 0.146925 22.1139C0.0505489 22.2656 -0.000440835 22.4417 2.87131e-06 22.6215V31.8147C-0.000440835 31.9945 0.0505489 32.1706 0.146925 32.3222C0.243302 32.4738 0.381021 32.5946 0.543753 32.6701L7.575 35.9131C7.69841 35.9703 7.83276 36 7.96875 36C8.10473 36 8.23909 35.9703 8.3625 35.9131L15 32.8487L21.6375 35.9131C21.7609 35.9703 21.8953 36 22.0312 36C22.1672 36 22.3016 35.9703 22.425 35.9131L29.4562 32.6701C29.619 32.5946 29.7567 32.4738 29.8531 32.3222C29.9494 32.1706 30.0004 31.9945 30 31.8147V22.6215C30.0013 22.4427 29.9517 22.2673 29.857 22.1158C29.7624 21.9643 29.6266 21.843 29.4656 21.7661ZM3.21563 22.6215L8.00625 20.4031L12.7969 22.6121L7.96875 24.8117L3.21563 22.6215ZM7.96875 34.0237V26.7951C8.09924 26.7852 8.22659 26.7501 8.34375 26.6917L14.0437 24.0597V31.2037L7.96875 34.0237ZM17.25 22.6215L22.0406 20.4125L26.8312 22.6215L22.0406 24.8117L17.25 22.6215ZM22.0687 34.0237V26.7951C22.1873 26.7851 22.3024 26.7499 22.4062 26.6917L28.1062 24.0597V31.2037L22.0687 34.0237Z" fill="#22C55E"/>
<path d="M28.3999 20C33.6466 20 37.8999 15.7467 37.8999 10.5C37.8999 5.25329 33.6466 1 28.3999 1C23.1532 1 18.8999 5.25329 18.8999 10.5C18.8999 15.7467 23.1532 20 28.3999 20Z" fill="#22C55E" stroke="white" stroke-width="2"/>
<path d="M31.1119 6.46L29.234 9.25C29.1041 9.44 29.3538 9.67 29.5336 9.51L31.3816 7.9C31.4315 7.86 31.5015 7.89 31.5015 7.96V12.99C31.5015 13.06 31.4116 13.09 31.3716 13.04L25.7778 6.34C25.598 6.12 25.3383 6 25.0486 6H24.8488C24.3294 6 23.8999 6.43 23.8999 6.96V14.04C23.8999 14.57 24.3294 15 24.8588 15C25.1885 15 25.4981 14.83 25.6779 14.54L27.5558 11.75C27.6857 11.56 27.436 11.33 27.2562 11.49L25.4082 13.09C25.3583 13.13 25.2884 13.1 25.2884 13.03V8.01C25.2884 7.94 25.3783 7.91 25.4182 7.96L31.012 14.66C31.1918 14.88 31.4615 15 31.7412 15H31.941C32.4704 15 32.8999 14.57 32.8999 14.04V6.96C32.8899 6.43 32.4604 6 31.931 6C31.6013 6 31.2917 6.17 31.1119 6.46Z" fill="white"/>
</svg>
