<svg width="36" height="35" viewBox="0 0 36 35" fill="none" xmlns="http://www.w3.org/2000/svg">
<path d="M7.97207 5.27491C5.8584 4.27209 1.69267 6.20979 0.495984 7.91566C-0.0371401 8.67901 0.000579635 9.22911 0.000579635 9.54121V26.2381L15.6223 35L18.5599 33.5542V17.2935L2.52056 8.99264C3.38127 8.01621 5.31701 6.82556 6.76848 7.30376L21.0549 14.1912L21.055 32.3057L24 30.8573V12.7432L7.97207 5.27491Z" fill="#FC6322"/>
<path d="M25.5 20C30.7467 20 35 15.7467 35 10.5C35 5.25329 30.7467 1 25.5 1C20.2533 1 16 5.25329 16 10.5C16 15.7467 20.2533 20 25.5 20Z" fill="#FC6322" stroke="white" stroke-width="2"/>
<path d="M28.212 6.46L26.3341 9.25C26.2042 9.44 26.4539 9.67 26.6337 9.51L28.4817 7.9C28.5316 7.86 28.6016 7.89 28.6016 7.96V12.99C28.6016 13.06 28.5117 13.09 28.4717 13.04L22.8779 6.34C22.6981 6.12 22.4384 6 22.1487 6H21.9489C21.4295 6 21 6.43 21 6.96V14.04C21 14.57 21.4295 15 21.9589 15C22.2886 15 22.5982 14.83 22.778 14.54L24.6559 11.75C24.7858 11.56 24.5361 11.33 24.3563 11.49L22.5083 13.09C22.4584 13.13 22.3885 13.1 22.3885 13.03V8.01C22.3885 7.94 22.4784 7.91 22.5183 7.96L28.1121 14.66C28.2919 14.88 28.5616 15 28.8413 15H29.0411C29.5705 15 30 14.57 30 14.04V6.96C29.99 6.43 29.5605 6 29.0311 6C28.7014 6 28.3918 6.17 28.212 6.46Z" fill="white"/>
</svg>
