<svg width="28" height="32" viewBox="0 0 28 32" fill="none" xmlns="http://www.w3.org/2000/svg">
<path d="M28 8.10159C28.0004 8.0775 27.9943 8.05372 27.9825 8.03266C27.9706 8.0116 27.9534 7.99399 27.9324 7.98159L14.0689 0.0189997C14.0476 0.00656211 14.0234 -6.10938e-07 13.9986 -6.12019e-07C13.9739 -6.13099e-07 13.9497 0.00656211 13.9284 0.0189997L0.0688931 8.07092C-0.0229629 8.12425 -0.0229629 8.25759 0.0688931 8.31092L13.9311 16.2735C13.9526 16.2855 13.977 16.2916 14.0017 16.2912C14.0264 16.2907 14.0506 16.2837 14.0716 16.2708L27.9324 8.22159C27.9534 8.20919 27.9706 8.19158 27.9825 8.17052C27.9943 8.14945 28.0004 8.12568 28 8.10159ZM28 11.9189C28.0001 11.8948 27.9938 11.8711 27.9817 11.8501C27.9696 11.8292 27.9521 11.8118 27.9311 11.7996C27.91 11.7875 27.886 11.781 27.8616 11.7809C27.8372 11.7807 27.8132 11.787 27.792 11.7989L15.6791 18.7135C15.6576 18.7256 15.6396 18.743 15.6271 18.7641C15.6145 18.7851 15.6078 18.8091 15.6075 18.8335L15.6075 22.9894C15.6075 23.0961 15.7263 23.1628 15.8196 23.1094L27.9311 16.1948C27.9522 16.1825 27.9696 16.1649 27.9817 16.1439C27.9938 16.1228 28.0001 16.099 28 16.0748L28 11.9202L28 11.9189ZM28 19.7735C28 19.7494 27.9936 19.7258 27.9815 19.705C27.9693 19.6842 27.9517 19.667 27.9306 19.6551C27.9094 19.6431 27.8855 19.637 27.8611 19.6371C27.8368 19.6373 27.8129 19.6439 27.792 19.6561L14.0013 27.5414L0.210729 19.6561C0.189782 19.6439 0.165921 19.6373 0.141576 19.6371C0.117229 19.637 0.0932628 19.6431 0.0721236 19.6551C0.0509826 19.667 0.0334235 19.6842 0.0212298 19.705C0.00903425 19.7258 0.00263891 19.7494 0.00269994 19.7735L0.00269976 23.9374C0.00236406 23.9612 0.00845041 23.9845 0.0203218 24.0052C0.032195 24.0258 0.0494279 24.0429 0.0702428 24.0548L13.9324 31.9814C13.9533 31.9936 13.9771 32 14.0013 32C14.0256 32 14.0494 31.9936 14.0702 31.9814L27.9311 24.0548C27.9522 24.0431 27.9697 24.026 27.9818 24.0054C27.9939 23.9848 28.0002 23.9613 28 23.9374L28 19.7735ZM12.1953 18.7202C12.1956 18.6959 12.1892 18.6721 12.1768 18.6512C12.1645 18.6303 12.1466 18.6131 12.125 18.6015L0.210729 11.8002C0.117523 11.7469 0.00270029 11.8136 0.00270028 11.9202L0.0027001 16.0762C0.0024388 16.1002 0.00852896 16.124 0.0203717 16.145C0.0322144 16.166 0.0494015 16.1837 0.0702431 16.1962L11.9846 22.9961C12.0058 23.0084 12.03 23.0149 12.0546 23.0149C12.0792 23.0149 12.1034 23.0085 12.1247 22.9963C12.146 22.9841 12.1636 22.9666 12.1758 22.9455C12.1879 22.9243 12.1942 22.9004 12.1939 22.8761L12.1939 18.7188L12.1953 18.7202Z" fill="#818CF8"/>
</svg>
