<?xml version="1.0" encoding="iso-8859-1"?>
<!-- Generator: Adobe Illustrator 19.0.0, SVG Export Plug-In . SVG Version: 6.00 Build 0)  -->
<svg version="1.1" id="Layer_1" xmlns="http://www.w3.org/2000/svg" xmlns:xlink="http://www.w3.org/1999/xlink" x="0px" y="0px"
	 viewBox="0 0 512 512" style="enable-background:new 0 0 512 512;" xml:space="preserve">
<g>
	<rect x="441.061" y="193.837" style="fill:#11544F;" width="42.511" height="30.214"/>
	<rect x="28.43" y="193.837" style="fill:#11544F;" width="39.489" height="30.214"/>
	<path style="fill:#11544F;" d="M444.363,402.339H67.637c-8.344,0-15.107-6.763-15.107-15.107V53.087
		C52.53,23.815,76.344,0,105.615,0h300.769c29.271,0,53.086,23.815,53.086,53.087v334.145
		C459.47,395.576,452.707,402.339,444.363,402.339z M82.743,372.125h346.513V53.087c0-12.613-10.261-22.873-22.872-22.873H105.615
		c-12.611,0-22.872,10.261-22.872,22.873C82.743,53.087,82.743,372.125,82.743,372.125z"/>
</g>
<path style="fill:#6AB797;" d="M444.214,496.893H67.786c-24.957,0-45.188-20.231-45.188-45.188v-231.4
	c0-9.927,11.027-15.883,19.329-10.44L245.301,343.18c6.497,4.259,14.901,4.259,21.399,0l203.374-133.315
	c8.303-5.443,19.329,0.514,19.329,10.44v231.4C489.402,476.662,469.17,496.893,444.214,496.893z"/>
<g>
	<path style="fill:#11544F;" d="M444.214,512H67.786c-33.247,0-60.295-27.047-60.295-60.295v-231.4
		c0-15.226,12.392-27.612,27.624-27.612c5.346,0,10.566,1.57,15.093,4.537l203.374,133.317c0.909,0.597,1.817,0.722,2.417,0.722
		c0.6,0,1.508-0.125,2.417-0.722L461.791,197.23c4.528-2.967,9.747-4.537,15.093-4.537c15.232,0,27.624,12.386,27.624,27.612v231.4
		C504.508,484.953,477.461,512,444.214,512z M37.705,225.159v226.546c0,16.586,13.495,30.081,30.081,30.081h376.428
		c16.586,0,30.081-13.495,30.081-30.081V225.159L274.982,355.814c-5.656,3.707-12.218,5.667-18.982,5.667
		c-6.763,0-13.326-1.959-18.982-5.667L37.705,225.159z"/>
	<path style="fill:#11544F;" d="M41.941,498.614c-4.923,0-9.748-2.402-12.649-6.827c-4.574-6.978-2.626-16.343,4.352-20.917
		l70.511-46.223c6.979-4.574,16.343-2.626,20.917,4.352c4.574,6.978,2.626,16.343-4.352,20.917l-70.511,46.223
		C47.655,497.813,44.781,498.614,41.941,498.614z"/>
	<path style="fill:#11544F;" d="M470.059,498.614c-2.842,0-5.715-0.801-8.268-2.475L258.417,362.824
		c-1.468-0.964-3.367-0.964-4.834,0l-64.834,42.5c-6.981,4.574-16.343,2.626-20.917-4.352c-4.574-6.978-2.626-16.343,4.352-20.917
		l64.834-42.5c11.531-7.558,26.434-7.558,37.964,0L478.355,470.87c6.978,4.574,8.927,13.939,4.352,20.917
		C479.807,496.21,474.982,498.614,470.059,498.614z"/>
	<path style="fill:#11544F;" d="M331.534,121.337H180.465c-8.344,0-15.107-6.763-15.107-15.107s6.763-15.107,15.107-15.107h151.069
		c8.344,0,15.107,6.763,15.107,15.107S339.878,121.337,331.534,121.337z"/>
	<path style="fill:#11544F;" d="M355.707,200.308H156.293c-8.344,0-15.107-6.763-15.107-15.107c0-8.344,6.763-15.107,15.107-15.107
		h199.414c8.344,0,15.107,6.763,15.107,15.107S364.051,200.308,355.707,200.308z"/>
</g>
<g>
</g>
<g>
</g>
<g>
</g>
<g>
</g>
<g>
</g>
<g>
</g>
<g>
</g>
<g>
</g>
<g>
</g>
<g>
</g>
<g>
</g>
<g>
</g>
<g>
</g>
<g>
</g>
<g>
</g>
</svg>
