<?xml version="1.0" encoding="iso-8859-1"?>
<!-- Generator: Adobe Illustrator 19.0.0, SVG Export Plug-In . SVG Version: 6.00 Build 0)  -->
<svg version="1.1" id="Layer_1" xmlns="http://www.w3.org/2000/svg" xmlns:xlink="http://www.w3.org/1999/xlink" x="0px" y="0px"
	 viewBox="0 0 496.2 496.2" style="enable-background:new 0 0 496.2 496.2;" xml:space="preserve">
<path style="fill:#25B7D3;" d="M496.2,248.1C496.2,111.1,385.1,0,248.1,0S0,111.1,0,248.1s111.1,248.1,248.1,248.1
	S496.2,385.1,496.2,248.1z"/>
<path style="fill:#FFD090;" d="M143.1,306.8c0,0-23.9-66.5,2.9-88.3c0,0,83.3-77.4,217.2,16.3c0,0,5.9,102.1-15.9,123.9
	s-67,63.2-102.1,67c-21.4,2.3-84.1-20.1-100.4-50.2C144.8,375.5,115.9,329,143.1,306.8z"/>
<path style="fill:#FBFAF6;" d="M271.5,256.8c1.5,21.9-7,31.5-18.3,32.4c-11.3,0.9-20.8-5.3-22.4-27.4c-1-14,0.8-29.8,17.7-31.5
	C264.9,228.5,270.6,242.8,271.5,256.8z"/>
<path style="fill:#0084A4;" d="M271.3,261c1,14.9-4.8,21.4-12.4,22c-7.7,0.6-14.2-3.6-15.2-18.6c-0.7-9.5,0.6-20.2,12-21.4
	C266.8,241.8,270.6,251.5,271.3,261z"/>
<path style="fill:#130002;" d="M266.7,261.3c0.7,9.9-3.3,14.3-8.6,14.7c-5.3,0.4-9.8-2.4-10.5-12.4c-0.5-6.3,0.4-13.5,8.4-14.3
	C263.6,248.5,266.2,254.9,266.7,261.3z"/>
<path style="fill:#FBFAF6;" d="M260.8,254c0.2,3.1-1.6,4.5-3.8,4.7c-2.3,0.2-4.2-0.7-4.4-3.8c-0.1-2,0.3-4.2,3.7-4.6
	C259.6,250,260.7,252,260.8,254z"/>
<g>
	<path style="fill:#472410;" d="M226.4,316.5c0,0,37.7-6.3,64-28.9c0,0,21.3,25.1-7.5,46.5c0,0,1.3,17.6-35.2,23.9
		c0,0-13.8,15.1-38.9,13.8c0,0-25.1,11.3-33.9,3.8c0,0-18.8-1.3-25.1-16.3c0,0-16.3-6.3-15.1-26.4L226.4,316.5z"/>
	<path style="fill:#472410;" d="M170.8,248.3c0,0-21.3-22.6-37.7,6.3c0,0-2.5-26.4,10-33.9C143.1,220.6,167,211.8,170.8,248.3z"/>
	<path style="fill:#472410;" d="M221.4,236.1c0,0,26.4-32.6,57.8-12.6c0,0-15.5-36.4-41.4-25.1C237.7,198.5,218.9,212.3,221.4,236.1
		z"/>
	<path style="fill:#472410;" d="M327.5,212.9c0,0-2.7,39.5-6.9,47.1c0,0-10.5,24.3,9.6,23.4c0,0,7.5,16.3,18.8,9.2
		c0,0,0.8-47.7,15.1-49.4C364.1,243.2,337.5,214.6,327.5,212.9z"/>
</g>
<path style="fill:#FBFAF6;" d="M139.8,280.7c3.7,19.2,13.2,25.6,23.1,23.7c9.9-1.8,16.8-9.3,13.1-28.7c-2.3-12.3-7.5-25.4-22.4-23.1
	C139.2,254.8,137.5,268.4,139.8,280.7z"/>
<path style="fill:#0084A4;" d="M148.6,279.7c2.8,14.6,10,19.5,17.6,18.1c7.5-1.4,12.7-7.1,10-21.8c-1.8-9.3-5.7-19.4-17.1-17.6
	C148,260,146.8,270.4,148.6,279.7z"/>
<path style="fill:#130002;" d="M153,279.5c1.9,9.7,6.8,12.9,12,12c5.2-1,8.8-4.8,7-14.6c-1.2-6.2-3.8-12.9-11.7-11.7
	C152.8,266.4,151.8,273.3,153,279.5z"/>
<path style="fill:#FBFAF6;" d="M159.4,270.5c0.5,2.6,2.2,3.3,4.1,3c1.9-0.3,3.2-1.4,2.8-4c-0.3-1.6-1.2-3.4-4-2.9
	C159.5,267,159,268.9,159.4,270.5z"/>
<path style="fill:#EDBF88;" d="M229.3,321.5c0,22.9-21.2,41.4-47.3,41.4s-47.3-18.6-47.3-41.4c0-5.7,1.3-11.2,3.7-16.1
	c7.2-14.9,24-25.3,43.6-25.3C208.2,280.1,229.3,298.6,229.3,321.5z"/>
<g>
	<path style="fill:#FFD090;" d="M223.9,317.8c0,22.6-20.4,40.9-45.6,40.9s-45.6-18.3-45.6-40.9c0-5.7,1.3-11,3.6-15.9
		c6.9-14.7,23.1-25,42-25C203.5,276.9,223.9,295.2,223.9,317.8z"/>
	<path style="fill:#FFD090;" d="M407.2,288.9c-8.1,25.3-22.6,41.9-47.3,41c-14.2-0.5-21.4-27.5-16.1-53.6
		c5.2-26.1,21.3-42.6,40.7-38.7C404,241.5,415.2,264.2,407.2,288.9z"/>
</g>
<path style="fill:#EDBB7E;" d="M393.4,288.4c-2.7,13.6-13.2,22.9-23.3,20.9c-10.1-2-16.1-14.7-13.4-28.3
	c2.7-13.6,13.2-22.9,23.3-20.9C390.1,262.2,396.1,274.9,393.4,288.4z"/>
<path style="fill:#FFD090;" d="M397.4,287.9c-2.6,13.1-12.7,22.1-22.5,20.2c-9.8-2-15.6-14.2-13-27.3c2.6-13.1,12.7-22.1,22.5-20.2
	C394.2,262.6,400,274.8,397.4,287.9z"/>
<path style="fill:#D61E1E;" d="M115.5,203.1c0,0-8.4-80.4,27.6-104.6c0,0,60.9-53,126.4-13.4c31.8,19.3,63.6,43.5,97.9,88.7
	c0,0,58.9,13.8,36.3,77.4c0,0-20.2-19.3-43.6-7.5C360.1,243.7,280.4,147.8,115.5,203.1z"/>
<ellipse transform="matrix(-0.1518 -0.9884 0.9884 -0.1518 65.2117 350.7504)" style="fill:#F1FBFA;" cx="183.103" cy="147.395" rx="41" ry="42.5"/>
<path style="fill:#D61E1E;" d="M154,168.5l13-46.7l14,15.6l9.9-18.7l25.7,41.7l-10.5,7.3l-13-25.1l-9.6,14.8l-12.6-12l-5.4,27.5
	L154,168.5z"/>
<path style="fill:#B21818;" d="M133.5,260c0,0-38.9-5-46.5-22.6c0,0-10-36.4,49-50.2c0,0,101.6-37.1,191.2,29.8
	c0,0-79.4-43.2-158.1-10.6C169.1,206.4,128.1,219.8,133.5,260z"/>
<g>
</g>
<g>
</g>
<g>
</g>
<g>
</g>
<g>
</g>
<g>
</g>
<g>
</g>
<g>
</g>
<g>
</g>
<g>
</g>
<g>
</g>
<g>
</g>
<g>
</g>
<g>
</g>
<g>
</g>
</svg>
