<?xml version="1.0" encoding="utf-8"?>
<!-- Generator: Adobe Illustrator 25.0.0, SVG Export Plug-In . SVG Version: 6.00 Build 0)  -->
<svg version="1.1" id="Layer_1" xmlns="http://www.w3.org/2000/svg" xmlns:xlink="http://www.w3.org/1999/xlink" x="0px" y="0px"
	 viewBox="0 0 5000 3609.1" style="enable-background:new 0 0 5000 3609.1;" xml:space="preserve">
<style type="text/css">
	.st0{fill:#0072CE;}
	.st1{fill:#5698D8;}
	.st2{fill:url(#SVGID_1_);}
	.st3{fill:#B6D2F6;}
	.st4{fill:url(#SVGID_2_);}
	.st5{fill:#65A6DB;}
	.st6{fill:#7FB2E5;}
	.st7{fill:#8FC1EA;}
	.st8{fill:#A2CEED;}
	.st9{fill:#C5E1FF;}
	.st10{fill:#FFFFFF;}
	.st11{fill:url(#SVGID_3_);}
	.st12{fill:url(#SVGID_4_);}
	.st13{fill:#014AA8;}
	.st14{fill:#4E96D1;}
	.st15{fill:#2886C6;}
	.st16{fill:#3E8CCC;}
	.st17{fill:#348BD1;}
	.st18{fill:#3A8ACC;}
	.st19{fill:#388ACE;}
	.st20{fill:#3064D8;}
	.st21{fill:#D9E8FB;}
	.st22{fill:#6BA8DB;}
	.st23{fill:url(#SVGID_5_);}
	.st24{fill:url(#SVGID_6_);}
	.st25{fill:url(#SVGID_7_);}
</style>
<g id="white_background">
</g>
<g>
	<rect x="2400.5" y="930.8" class="st0" width="1031.2" height="417"/>
	<path class="st1" d="M2354.4,994.7h680.3c-76.3-142.1-151.4-279.8-231-424.8c-39-71-84-151.9-164.5-243.8
		c-47.4-54.1-91.9-94.7-124.2-121.9c-26.7-17.5-57.7-30-88.6-23.4c-97.9,21-127.1,219.2-154.3,403.7C2248,748,2261.3,820.9,2285,880
		C2305.7,931.5,2333.3,969.7,2354.4,994.7z"/>
	
		<linearGradient id="SVGID_1_" gradientUnits="userSpaceOnUse" x1="25960.0781" y1="-5001.6738" x2="26663.0547" y2="-5001.6738" gradientTransform="matrix(-1 0 0 1 28943.3789 5626.1475)">
		<stop  offset="0" style="stop-color:#FFFFFF"/>
		<stop  offset="1" style="stop-color:#7BBBF3"/>
	</linearGradient>
	<path class="st2" d="M2293.1,881.1c7.2,23.3,16.9,37.7,29.7,47.3c14.9,11.2,33.3,15.6,47.3,18.9c13.1,3.1,24.3,4.4,32.3,4.9
		c131.2-0.7,262.3-1.4,393.5-2.1c62.5-0.3,124.9-0.7,187.4-1c-80.5-150.7-160.9-301.3-241.4-452c-89.1-79.2-161-136.6-198.7-162.2
		c-6.8-4.6-27.2-18.2-56.8-28.4c-30.5-10.5-50.1-10.1-59.5-9.5c-11.5,0.8-25,1.9-39.2,10.8c-13.2,8.3-20.7,19.2-24.3,25.7
		c-13.8,30.3-31.2,73-46,125.7c-4.9,17.7-9,37.7-12.9,62.9c-6,38.7-11.6,89.3-19.6,161.5C2283.4,698.5,2271.6,811.5,2293.1,881.1z"
		/>
	<path class="st0" d="M2304.6,522.3c15.1-65.3,57-112.4,106.1-119.6c38.7-5.7,71,15,85.2,24.3c59.9,39.6,289.4,503.1,300,523.2
		c62.5-0.3,124.9-0.7,187.4-1c-80.5-150.7-160.9-301.3-241.4-452c-89.1-79.2-161-136.6-198.7-162.2c-6.8-4.6-27.2-18.2-56.8-28.4
		c-30.5-10.5-50.1-10.1-59.5-9.5c-11.5,0.8-25,1.9-39.2,10.8c-13.2,8.3-20.7,19.2-24.3,25.7c-13.8,30.3-31.2,73-46,125.7
		C2312.5,477.1,2308.5,497.2,2304.6,522.3z"/>
	<path class="st3" d="M3829.9,710.8c19.2,10.8,36.1,28.9,36.1,28.9c36.3,38.8,43.7,85.6,49.1,119.1c3.4,21.6,6.9,57.6,0,101.4
		c-4.9,31-11.5,73.3-42.6,115.6c-24.5,33.3-54.4,53.2-77,64.9c-14.2,4.7-28.4,9.5-42.6,14.2c-152.6-2-305.3-4-457.9-6
		C3342.7,1097.2,3746.7,663.9,3829.9,710.8z"/>
	<path class="st0" d="M3416.3,1144.7c46.4,0.9,94.5,0.9,143.9,0c53.8-1,105.9-3.1,156.1-6.1c18-2.5,52.3-9.9,87.2-34.5
		c7.9-5.6,40.1-29.2,62.9-73c33.4-64.4,23-127.1,16.2-168.3c-5.7-34.3-14.4-52.3-26.4-77c-13.1-27-21.4-34.7-30.4-38.5
		c-10.2-4.3-23.1-4.7-50.7,6.1c-21.2,8.3-53.2,24-87.2,54.7C3597.4,920.3,3506.9,1032.5,3416.3,1144.7z"/>
	
		<linearGradient id="SVGID_2_" gradientUnits="userSpaceOnUse" x1="25201.6895" y1="-4659.8975" x2="25599.9668" y2="-4659.8975" gradientTransform="matrix(-1 0 0 1 28943.3789 5626.1475)">
		<stop  offset="0" style="stop-color:#FFFFFF"/>
		<stop  offset="1" style="stop-color:#7BBBF3"/>
	</linearGradient>
	<path class="st4" d="M3508.2,1122.1l93-7.4c83.7-6.7,146.7-80.6,140-164.3l0,0c-6.7-83.7-80.6-146.7-164.3-140l-93,7.4
		c-83.7,6.7-146.7,80.6-140,164.3l0,0C3350.6,1065.8,3424.5,1128.8,3508.2,1122.1z"/>
	<path class="st3" d="M3035.2,1014.9c-211.3,0-422.6,0-633.9,0c-5.9-0.7-14.4-2-24.3-4.1c-15.3-3.2-37.5-7.8-55.4-17.6
		c-23.9-13-36.3-33.2-43.3-44.6c-37.8-61.6-33.7-189-32.4-221.7c3.2-84.2,7.8-85.5,31.1-301.4c0.9-8.5,4.1-37.8,13.5-75.7
		c11.1-44.4,20.6-81.2,48.7-117.6c15.1-19.6,36.5-47.4,74.3-58.1c32.2-9.1,59.7-1.2,82.4,5.4c13.4,3.9,52.4,17.1,96,56.8
		c91.8,83.6,153.3,239.2,163.5,265.6c6.9,18.9,13.8,37.8,20.7,56.7c-32.9-53.6-58.9-96.3-75.5-123.6c-32.3-53.2-45.6-76.8-71-109.5
		c-30.8-39.7-49.6-63.5-83.1-87.2c-38.4-27.1-66.5-33.1-85.2-34.5c-8.9-0.7-20.6-1.6-34.5,2c-18,4.7-42.4,17.6-71,64.9
		c-21.7,36-34.6,73.4-48.7,143.9c-11.8,59-17.4,106.4-20.3,133.8c-13.3,125.3,0.3,117.7-6.2,249.2c-0.6,11.7-2.3,45.3,12.2,83.3
		c5.6,14.7,12.7,32.4,29.7,47.3c27.4,23.9,61.6,23.8,72.7,23.2c195.9-0.8,391.8-1.6,587.7-2.5
		C3000.6,971.1,3017.9,993,3035.2,1014.9z"/>
	<path class="st1" d="M2650.1,303c1.1,2.3,2.5,5,4.1,8.1c3.8,7.5,8.7,17.4,14.9,29.6c31.6,62.8,94,186.9,180.9,358.9
		c116.7,230.9,177.5,347.6,298.8,408.6c27.6,13.9,90.2,44.4,174.4,40.6c28.6-1.3,88.5-7.9,150-44.6c54.4-32.4,83.4-72.4,133.8-141.9
		c64.1-88.4,93.3-137.9,93.3-137.9c11.1-18.8,22.3-39.1,44.6-60.8c29.7-29,62.1-44.3,85.2-52.7c-17.5-1.7-43.3-3.9-74.8-5.2
		c-2.8-0.1-5.6-0.2-8.5-0.3c-21.1-0.7-40.5-0.9-58.7-0.7l0,0c-41.6,0.5-76.6,3.4-109.5,6.9c-39.6,4.3-76.1,9.7-117.4,13.5
		c-29.3,2.7-57.8,5.4-85.7,7.3l0,0c-107,7.6-204.7,5.1-303.6-41.8c-28.4-13.5-54-29.2-75.8-44.4c-34.9-24.4-59.8-47.3-70.2-57
		c-64.9-60.5-82.1-102.9-154.1-178.4c-39.8-41.7-77.1-73.4-105.3-95.4c-3.2-2.5-6.4-4.9-9.4-7.2
		C2654.5,306.4,2652.3,304.7,2650.1,303z"/>
	<path class="st5" d="M2650.1,303c1.5,2.6,2.9,5.1,4.4,7.7c4.5,7.9,9,15.8,13.4,23.6c3,5.3,6.1,10.6,9.1,15.9
		c5.2,9.2,10.5,18.3,15.7,27.4c90.9,158.6,173.7,298.8,247.3,424.5c23.5,40.2,86.8,148.5,200.7,206.8
		c59.3,30.3,106.3,33.8,123.7,34.5c57.9,2.2,101.3-14.8,129.8-26.4c66.6-27,108.1-65,150-103.4c28.2-25.9,94.9-90.9,131.8-137.9
		c5.3-6.7,22.2-28.7,50.7-50.7c11.8-9.1,22.1-15.6,28.6-19.4l0,0c-2.8-0.1-5.6-0.2-8.5-0.3c-21.1-0.7-40.5-0.9-58.7-0.7l0,0
		c-41.6,0.5-76.6,3.4-109.5,6.9c-39.6,4.3-76.1,9.7-117.4,13.5c-29.3,2.7-57.8,5.4-85.7,7.3l0,0c-107,7.6-204.7,5.1-303.6-41.8
		c-28.4-13.5-54-29.2-75.8-44.4c-34.9-24.4-59.8-47.3-70.2-57c-64.9-60.5-82.1-102.9-154.1-178.4c-39.8-41.7-77.1-73.4-105.3-95.4
		C2666.7,313.9,2653.3,304.2,2650.1,303z"/>
	<path class="st6" d="M2669,340.7c1,1.2,2,2.4,3.1,3.7c1.5,1.8,3.1,3.7,4.9,5.8c16.2,19.3,40.8,48.5,74.4,95
		c5.6,7.8,10.8,15.1,15.7,22.2c67.5,97.2,74.9,133.7,164.7,261.6c49.6,70.6,83.7,111.3,131.8,150c65.2,52.6,110.3,64.7,129.8,68.9
		c47.5,10.3,86.6,4.3,113.5,0c60-9.7,102.4-31.8,137.9-50.7c10-5.3,47.2-31.3,121.6-83.1c28.3-19.7,51.5-36.1,79.1-62.9
		c18.8-18.2,33-34.9,42.5-46.8l0,0c-41.6,0.5-76.6,3.4-109.5,6.9c-39.6,4.3-76.1,9.7-117.4,13.5c-29.3,2.7-57.8,5.4-85.7,7.3l0,0
		c-107,7.6-204.7,5.1-303.6-41.8c-28.4-13.5-54-29.2-75.8-44.4c-34.9-24.4-59.8-47.3-70.2-57c-64.9-60.5-82.1-102.9-154.1-178.4
		c-39.8-41.7-77.1-73.4-105.3-95.4c0.5-1.4-8.6-7.8-9.4-7.2c-1,0.7-1.8,1.6-2.5,2.5c-0.1,0.1-0.2,0.3-0.3,0.5
		c-0.1,0.1-0.1,0.2-0.2,0.3C2650.8,317.4,2655.7,324.6,2669,340.7z"/>
	<path class="st7" d="M2667.9,334.3c1.1,3.1,2.5,6.5,4.2,10.1c4.5,9.4,11.4,20.4,20.5,33.1c17,23.8,42,53.6,74.4,89.9
		c51.4,57.4,121.6,131.1,209.3,223.1c20.4,21.4,64.8,67.1,135.8,99.3c51.9,23.6,94.2,29.1,105.4,30.4c55,6.4,97.8-2.6,131.8-10.1
		c43.4-9.6,73.9-22.4,107.5-36.5c32.4-13.6,74.4-33.5,121.5-62.2c-39.6,4.3-76.1,9.7-117.4,13.5c-29.3,2.7-57.8,5.4-85.7,7.3l0,0
		c-107,7.6-204.7,5.1-303.6-41.8c-28.4-13.5-54-29.2-75.8-44.4c-34.9-24.4-59.8-47.3-70.2-57c-64.9-60.5-82.1-102.9-154.1-178.4
		c-39.8-41.7-77.1-73.4-105.3-95.4C2664.7,320.3,2665.2,326.6,2667.9,334.3z"/>
	<path class="st8" d="M2995.9,646.2c20.9,27.3,79.3,69.7,140.6,91c58,20.1,108,17.7,133.8,16.2c44.3-2.6,80.3-12.4,104.9-21
		c-107,7.6-204.7,5.1-303.6-41.8C3043.2,677.1,3017.6,661.3,2995.9,646.2z"/>
	<g>
		<ellipse class="st9" cx="2935" cy="1354.6" rx="720.7" ry="184.1"/>
		<ellipse class="st9" cx="2935" cy="1373" rx="717" ry="165.3"/>
	</g>
	<ellipse class="st1" cx="2958.7" cy="1447.9" rx="414.8" ry="175.8"/>
	<ellipse class="st9" cx="2958.7" cy="1497.9" rx="408.3" ry="144.6"/>
	<ellipse class="st1" cx="2958.7" cy="1617.5" rx="250.6" ry="119.6"/>
	<ellipse class="st7" cx="2958.7" cy="1667.6" rx="229.7" ry="69.6"/>
	<ellipse class="st1" cx="2958.7" cy="1823.2" rx="220.6" ry="119"/>
	<ellipse class="st10" cx="2958.7" cy="1863.5" rx="197.7" ry="60.4"/>
	<g>
		
			<radialGradient id="SVGID_3_" cx="27062.6797" cy="-4543.5977" r="170.166" fx="27012.0488" fy="-4594.481" gradientTransform="matrix(-1 0 0 1 28943.3789 5626.1475)" gradientUnits="userSpaceOnUse">
			<stop  offset="5.641030e-02" style="stop-color:#FFFFFF"/>
			<stop  offset="0.9949" style="stop-color:#0072CE"/>
		</radialGradient>
		<path class="st11" d="M2090.1,1199c0.8-7.3,1.2-14.8,1.2-22.3c0-116.3-94.3-210.6-210.6-210.6c-116.3,0-210.6,94.3-210.6,210.6
			c0,6.1,0.3,12.2,0.8,18.2L2090.1,1199z"/>
		<ellipse class="st1" cx="1880.6" cy="1234.3" rx="231.4" ry="88.2"/>
		<ellipse class="st10" cx="1880.6" cy="1243.1" rx="230.2" ry="79.2"/>
		<ellipse class="st1" cx="1880.6" cy="1282.2" rx="198.6" ry="84.1"/>
		<ellipse class="st10" cx="1880.6" cy="1306.2" rx="195.5" ry="69.2"/>
		<ellipse class="st1" cx="1880.6" cy="1363.4" rx="120" ry="57.3"/>
		<ellipse class="st10" cx="1880.6" cy="1387.4" rx="110" ry="33.3"/>
		<ellipse class="st1" cx="1880.6" cy="1461.9" rx="105.6" ry="57"/>
		<ellipse class="st10" cx="1880.6" cy="1481.2" rx="94.7" ry="28.9"/>
		<path class="st1" d="M1882.2,2197L1882.2,2197c10.6,0,19.3-30,19.3-66.5v-573.3c0-36.5-8.7-66.5-19.3-66.5l0,0
			c-10.6,0-19.3,30-19.3,66.5v573.3C1863,2167.4,1871.6,2197,1882.2,2197z"/>
	</g>
	
		<linearGradient id="SVGID_4_" gradientUnits="userSpaceOnUse" x1="2625.05" y1="-2926.3325" x2="2625.05" y2="-3266.3914" gradientTransform="matrix(1 0 0 1 0 5626.1475)">
		<stop  offset="0" style="stop-color:#FFFFFF"/>
		<stop  offset="1" style="stop-color:#5698D8"/>
	</linearGradient>
	<path class="st12" d="M1810,2615.9l419.8-16.8l246.4-187.2l848.1-9l123.1-84.1H2331.8c-176.4-20.3-352.7-40.7-529.1-61
		C1805.1,2377.2,1807.5,2496.6,1810,2615.9z"/>
	<rect x="1879.2" y="2255.7" class="st10" width="4.3" height="366.4"/>
	<rect x="2011.4" y="2281.2" class="st10" width="4.3" height="331.4"/>
	<rect x="2119.1" y="2290.4" class="st10" width="4.3" height="312.8"/>
	<rect x="2218.2" y="2311.6" class="st10" width="4.3" height="279"/>
	<rect x="2373.6" y="2311.6" class="st10" width="4.3" height="200.9"/>
	<rect x="3296.3" y="2301.8" class="st10" width="4.3" height="95"/>
	<rect x="3077.3" y="2311.6" class="st10" width="4.3" height="91.4"/>
	<rect x="2554.5" y="2344.4" class="st13" width="301" height="46.3"/>
	<path class="st10" d="M1804.2,2385c215,12,430,23.9,644.9,35.9l7.3-24.1l-651-48.5C1805.1,2360.6,1804.7,2372.8,1804.2,2385z"/>
	<path class="st1" d="M2220.3,2611.4c259.8,1.5,519.7,3,779.5,4.5c-0.4-8-0.8-16-1.2-24.1c-259.4-0.4-518.9-0.8-778.3-1.2
		C2220.3,2597.6,2220.3,2604.5,2220.3,2611.4z"/>
	<rect x="2248.5" y="2563.7" class="st1" width="798.3" height="26.9"/>
	<rect x="2270.5" y="2540.4" class="st1" width="808.9" height="23.3"/>
	<rect x="2296.2" y="2520.9" class="st1" width="829.7" height="19.6"/>
	<rect x="2317.8" y="2504.1" class="st1" width="876.6" height="16.7"/>
	<rect x="2344.8" y="2492.7" class="st14" width="883.2" height="11.4"/>
	<rect x="2375.8" y="2475.6" class="st15" width="843.2" height="17.1"/>
	<rect x="2393.7" y="2456.8" class="st16" width="843.6" height="18.8"/>
	<rect x="2413.3" y="2438.9" class="st14" width="844.4" height="17.9"/>
	<rect x="2432" y="2420.9" class="st17" width="866.4" height="17.9"/>
	<rect x="2449.2" y="2403" class="st18" width="875" height="17.9"/>
	<rect x="2467.1" y="2390.7" class="st19" width="857.1" height="12.2"/>
	<path class="st20" d="M2197.9,2578.7l-2.9-3.2l145.6-134.6h33.1c15.6-13.6,30.8-27.9,45.3-42.6c16.2-16.4,31.8-33.7,46.5-51.5
		l3.3,2.7c-14.8,17.8-30.5,35.2-46.7,51.7c-14.7,15-30.3,29.6-46.1,43.4l-0.6,0.5h-33L2197.9,2578.7z"/>
	
		<rect x="2340" y="2443.6" transform="matrix(1 -9.518689e-03 9.518689e-03 1 -23.4599 22.4064)" class="st20" width="4.3" height="64.3"/>
	<rect x="2466" y="2348.3" class="st20" width="4.3" height="57.5"/>
	<rect x="2203.5" y="2567.4" class="st20" width="4.3" height="48.5"/>
	<polygon class="st9" points="3895.7,1959.2 3736.6,2603.3 3035.7,2621.7 	"/>
	<path class="st21" d="M3431.9,2331.2c-132.1,96.8-264.1,193.7-396.2,290.5c-16.7,0.1-33.4,0.2-50.1,0.4
		c138.5-97,277.1-193.9,415.6-290.9H3431.9z"/>
	<polygon class="st0" points="3895.7,2602.9 3895.7,1959.2 3736.6,2603.3 	"/>
	<polygon class="st9" points="2296.2,1436.8 2296.2,2348.3 3431.9,2331.2 3895.7,1959.2 	"/>
	<path class="st0" d="M3606.4,2196.9l-1172.7-172.7c-8.4-1.2-15.2-6-15.2-10.5v-349.1c0-4.5,6.9-6.4,15.2-4.1l1172.7,310.8
		c3.3,0.8,5.9,3.8,5.9,6.6v214.9C3612.2,2195.6,3609.6,2197.5,3606.4,2196.9z"/>
	<path class="st22" d="M1365.2,1892.6c0,6.8,0,712.1,0,712.1l425.6,14.1v-363.1l505.4,92.6v-911.5L1365.2,1892.6z"/>
	<path class="st21" d="M1816.9,2630.6c-10.9,2.7-21.8,5.4-32.6,8.1c2.2-127.7,4.4-255.4,6.5-383c8.7,1.6,17.4,3.2,26.1,4.8
		C1816.9,2383.8,1816.9,2507.2,1816.9,2630.6z"/>
	
		<linearGradient id="SVGID_5_" gradientUnits="userSpaceOnUse" x1="3249.2087" y1="-2836.8176" x2="4897.2114" y2="-3072.8181" gradientTransform="matrix(1 0 0 1 0 5626.1475)">
		<stop  offset="0" style="stop-color:#FFFFFF"/>
		<stop  offset="1" style="stop-color:#5698D8"/>
	</linearGradient>
	<path class="st23" d="M3819.6,2605.9l93.5-9.3c10.9-0.3,889.2,64.1,889.2,64.1l-48.4,14.9L3819.6,2605.9z"/>
	
		<linearGradient id="SVGID_6_" gradientUnits="userSpaceOnUse" x1="3248.4441" y1="-2842.1621" x2="4896.4419" y2="-3078.1616" gradientTransform="matrix(1 0 0 1 0 5626.1475)">
		<stop  offset="0" style="stop-color:#FFFFFF"/>
		<stop  offset="1" style="stop-color:#5698D8"/>
	</linearGradient>
	<path class="st24" d="M3633.6,2617.9l963.6,76.2l114.3-8.7c-313.5-23.7-627.1-47.5-940.6-71.2
		C3725.1,2615.5,3679.4,2616.7,3633.6,2617.9z"/>
	
		<linearGradient id="SVGID_7_" gradientUnits="userSpaceOnUse" x1="3246.854" y1="-2853.2629" x2="4894.8521" y2="-3089.2629" gradientTransform="matrix(1 0 0 1 0 5626.1475)">
		<stop  offset="0" style="stop-color:#FFFFFF"/>
		<stop  offset="1" style="stop-color:#5698D8"/>
	</linearGradient>
	<polygon class="st25" points="3430.3,2632.8 4388.5,2717.6 4501,2707.1 3557.4,2623.5 	"/>
	<polygon class="st9" points="4159.9,2740.6 4281.5,2727.6 3314.2,2636.1 3190.8,2645.8 	"/>
	<polygon class="st9" points="2938.5,2662.5 3875,2766.6 4025.6,2753.6 3067.4,2654.2 	"/>
	<polygon class="st9" points="3581,2801.9 3736.1,2783.3 2795.2,2675.5 2630,2688.3 	"/>
	<polygon class="st9" points="3430.3,2819.2 2520.6,2694.1 2336.7,2694.1 3248.9,2836.5 	"/>
	<path class="st9" d="M1991.9,2726.3c281.9,51.6,563.8,103.2,845.7,154.8l212.9-24.8l-861.4-138.7
		C2123.3,2720.5,2057.6,2723.4,1991.9,2726.3z"/>
	<polygon class="st9" points="1614.4,2749.8 1823.7,2739.9 2617.3,2898.5 2389.9,2933.1 	"/>
	<polygon class="st9" points="2087.4,2957.9 1804.3,2992.6 1197,2782 1397.8,2765.3 	"/>
	<g>
		<path class="st10" d="M2535.6,1815.5l10.7,2l36.9,102l0.9,0.2l36.9-88l10.7,2v109.1l-8.7-1.7V1853l-0.8-0.2l-34.3,81.6l-8.4-1.6
			l-34.3-94.5l-0.8-0.2v88l-8.7-1.7L2535.6,1815.5L2535.6,1815.5z"/>
		<path class="st10" d="M2669.9,1950v-109.1l59,11.2v8.9l-49.7-9.4v41.1l46.6,8.8v8.9l-46.6-8.8v41.2l50.7,9.6v8.9L2669.9,1950z"/>
		<path class="st10" d="M2752.8,1856.6l10.7,2l36.9,102l0.9,0.2l36.9-88l10.7,2v109.1l-8.7-1.7v-88.1l-0.8-0.2l-34.3,81.6l-8.4-1.6
			l-34.3-94.5l-0.8-0.2v88.1l-8.7-1.7L2752.8,1856.6L2752.8,1856.6z"/>
		<path class="st10" d="M2875.9,1989v-109.1l59,11.2v8.9l-49.7-9.4v41.1l46.6,8.8v8.9l-46.6-8.8v41.2l50.7,9.6v8.9L2875.9,1989z"/>
		<path class="st10" d="M2998.2,1903l10.7,2l36.9,102l0.9,0.2l36.9-88l10.7,2v109.1l-8.7-1.7v-88.1l-0.8-0.2l-34.3,81.6l-8.4-1.6
			l-34.3-94.5l-0.8-0.2v88.1l-8.7-1.7L2998.2,1903L2998.2,1903z"/>
		<path class="st10" d="M3168,2013v-50.6l8.8,1.7v81.8l-8.8-1.7v-13.6l-0.7-0.1c-1.8,3.9-4.6,6.8-8.5,8.9s-8.6,2.6-14.2,1.5
			c-4.9-0.9-9.2-2.9-13-5.9s-6.7-6.9-8.9-11.8c-2.2-4.8-3.2-10.5-3.2-17v-53l8.8,1.7v52.4c0,6.4,1.8,11.9,5.3,16.4
			c3.5,4.6,8,7.3,13.5,8.4c3.4,0.7,6.8,0.4,9.9-0.8c3.2-1.2,5.8-3.3,7.8-6.3C3166.9,2022,3168,2018,3168,2013z"/>
		<path class="st10" d="M3251.4,1996.1l-8.1,0.9c-0.8-2.6-1.9-5-3.4-7.3s-3.4-4.2-5.7-5.8c-2.3-1.6-5.2-2.7-8.7-3.4
			c-5.2-1-9.4-0.5-12.7,1.5s-5,5.1-5,9.2c0,3.5,1.1,6.6,3.4,9.2c2.3,2.6,5.8,5,10.5,7.2l11.5,5.2c6.4,2.9,11.2,6.4,14.4,10.7
			c3.2,4.2,4.8,9.1,4.8,14.5c0,4.6-1.2,8.5-3.6,11.6c-2.4,3.1-5.7,5.3-10,6.6c-4.3,1.2-9.2,1.3-14.8,0.3c-7.4-1.4-13.6-4.4-18.4-8.9
			c-4.8-4.5-7.9-10.3-9.3-17.4l8.5-0.6c1.1,5.1,3.2,9.2,6.4,12.2c3.2,3.1,7.4,5.1,12.6,6.1c5.9,1.1,10.5,0.6,14-1.6
			c3.5-2.2,5.3-5.4,5.3-9.6c0-3.3-1-6.3-3.1-8.9s-5.2-4.9-9.3-6.7l-12.5-5.6c-6.6-3-11.5-6.6-14.7-10.9s-4.8-9.2-4.8-14.6
			c0-4.5,1.1-8.3,3.4-11.3c2.3-3,5.4-5.1,9.4-6.3c4-1.2,8.6-1.3,13.7-0.3c7,1.3,12.6,4.1,16.8,8.3
			C3246.5,1984.6,3249.5,1989.9,3251.4,1996.1z"/>
		<path class="st10" d="M3302.6,2071.4c-7.1-1.3-13.3-4.3-18.5-8.8c-5.2-4.6-9.2-10.3-12-17.1c-2.8-6.9-4.2-14.4-4.2-22.7
			c0-8.2,1.4-15.3,4.2-21.2c2.8-5.9,6.8-10.2,11.8-12.8c5-2.7,10.8-3.4,17.4-2.2c4.1,0.8,8.1,2.3,12,4.7c3.8,2.3,7.3,5.5,10.4,9.4
			c3.1,3.9,5.5,8.5,7.3,13.9s2.7,11.5,2.7,18.3v4.7l-59.6-11.3v-8.4l50.5,9.6c0-5.3-1-10.2-3-14.8c-2-4.6-4.7-8.4-8.2-11.5
			s-7.5-5.1-12.1-6c-4.8-0.9-9.1-0.3-12.8,1.7s-6.5,5.2-8.6,9.3s-3.1,8.9-3.2,14.3v5c0,6.5,1,12.4,3.2,17.6c2.1,5.2,5.1,9.6,9,13
			s8.5,5.6,13.8,6.6c3.6,0.7,6.8,0.7,9.5,0s5-1.9,6.9-3.6s3.3-3.7,4.2-5.9l8.4,4.5c-1.2,3.2-3.1,6-5.7,8.5c-2.6,2.4-5.9,4.1-9.8,5.1
			C3312.2,2072.4,3307.7,2072.4,3302.6,2071.4z"/>
		<path class="st10" d="M3401.4,2057.1v-50.6l8.8,1.7v81.8l-8.8-1.7v-13.6l-0.7-0.1c-1.8,3.9-4.6,6.8-8.5,8.9s-8.6,2.6-14.2,1.5
			c-4.9-0.9-9.2-2.9-13-5.9s-6.7-6.9-8.9-11.8c-2.2-4.8-3.2-10.5-3.2-17v-53l8.8,1.7v52.4c0,6.4,1.8,11.9,5.3,16.4
			c3.5,4.6,8,7.3,13.5,8.4c3.4,0.7,6.8,0.4,9.9-0.8c3.2-1.2,5.8-3.3,7.8-6.3C3400.4,2066.2,3401.4,2062.1,3401.4,2057.1z"/>
		<path class="st10" d="M3433.6,2094.5v-81.8l8.6,1.6v12.6l0.8,0.2c1.5-3.9,4.1-6.8,7.6-8.5c3.6-1.8,7.8-2.2,12.8-1.2
			c5.3,1,9.6,3.1,13,6.4s5.9,7.4,7.6,12.3l0.6,0.1c1.7-4.2,4.5-7.3,8.4-9.2c3.9-1.9,8.6-2.4,14.2-1.3c7.1,1.3,12.7,4.8,16.8,10.3
			c4.1,5.6,6.2,12.9,6.2,22.1v54.8l-8.8-1.7v-54.8c0-6.5-1.5-11.6-4.6-15.4s-7.1-6.2-12.2-7.1c-5.8-1.1-10.3,0-13.5,3.2
			c-3.1,3.2-4.7,7.8-4.7,13.7v53.9l-9-1.7v-55.7c0-5.5-1.4-10.3-4.3-14.2c-2.9-4-6.9-6.4-12.2-7.4c-3.5-0.7-6.7-0.3-9.5,1
			s-5,3.5-6.6,6.4c-1.6,3-2.4,6.6-2.4,10.9v52.4L3433.6,2094.5z"/>
	</g>
</g>
</svg>
